<svg xmlns="http://www.w3.org/2000/svg" viewBox="0 0 627 90"><defs><style>.cls-1{fill:#005299;}.cls-2{fill:#fff;}</style></defs><title>btn_face</title><g id="Capa_2" data-name="Capa 2"><g id="Capa_1-2" data-name="Capa 1"><rect class="cls-1" width="627" height="90" rx="12" ry="12"/><path class="cls-2" d="M163.23,54.83h-4.62l-3.8-6.37a13,13,0,0,0-1-1.5,6.16,6.16,0,0,0-1-1,3.42,3.42,0,0,0-1.1-.58,4.69,4.69,0,0,0-1.35-.18h-1.59v9.66h-3.94V31h7.84a11.57,11.57,0,0,1,3.09.39,7.26,7.26,0,0,1,2.46,1.21,5.53,5.53,0,0,1,1.63,2,6.35,6.35,0,0,1,.59,2.81,6.93,6.93,0,0,1-.37,2.32A6.07,6.07,0,0,1,159,41.64a6.27,6.27,0,0,1-1.66,1.4,8.05,8.05,0,0,1-2.18.9V44a6.14,6.14,0,0,1,1.13.8c.32.3.62.6.91.91a10.51,10.51,0,0,1,.86,1.05l.94,1.37Zm-14.46-20.6V42h3.29a4.82,4.82,0,0,0,1.68-.29,3.68,3.68,0,0,0,2.22-2.1,4.45,4.45,0,0,0,.31-1.71,3.41,3.41,0,0,0-1.08-2.68,4.51,4.51,0,0,0-3.1-1Z"/><path class="cls-2" d="M179.07,47.38H167.48A4.88,4.88,0,0,0,168.93,51a5.39,5.39,0,0,0,3.81,1.28,8.43,8.43,0,0,0,5-1.62v3.1a11.46,11.46,0,0,1-6.14,1.46,7.58,7.58,0,0,1-5.89-2.32,9.25,9.25,0,0,1-2.13-6.51,9.05,9.05,0,0,1,2.35-6.47,7.69,7.69,0,0,1,5.83-2.5,6.72,6.72,0,0,1,5.4,2.24,9.34,9.34,0,0,1,1.91,6.23Zm-3.72-2.72a5,5,0,0,0-1-3.23,3.28,3.28,0,0,0-2.66-1.16,3.77,3.77,0,0,0-2.81,1.21,5.57,5.57,0,0,0-1.42,3.18Z"/><path class="cls-2" d="M198.21,53.47q0,9.36-9.41,9.36a14.06,14.06,0,0,1-5.8-1.11V58.2a10.78,10.78,0,0,0,5.3,1.6q6.06,0,6.06-6V52h-.07a6.68,6.68,0,0,1-10.75,1,9.13,9.13,0,0,1-1.9-6.08,10.73,10.73,0,0,1,2-6.89,6.8,6.8,0,0,1,5.61-2.56,5.4,5.4,0,0,1,5,2.76h.07V37.83h3.85Zm-3.82-6.42V44.84a4.31,4.31,0,0,0-1.19-3.06,3.88,3.88,0,0,0-3-1.28,4.08,4.08,0,0,0-3.43,1.62,7.35,7.35,0,0,0-1.24,4.53,6.3,6.3,0,0,0,1.19,4,3.81,3.81,0,0,0,3.15,1.5,4.09,4.09,0,0,0,3.24-1.44A5.38,5.38,0,0,0,194.39,47.05Z"/><path class="cls-2" d="M209.86,29.17l-4.75,5.44h-2.85l4-5.44Zm-2.77,25.66h-3.87v-17h3.87Z"/><path class="cls-2" d="M211,54.3V50.73a7.68,7.68,0,0,0,4.77,1.65c2.32,0,3.48-.69,3.48-2.06a1.62,1.62,0,0,0-.3-1,2.81,2.81,0,0,0-.8-.72A6.71,6.71,0,0,0,217,48l-1.53-.56a16.78,16.78,0,0,1-1.89-.88,5.48,5.48,0,0,1-1.39-1.06,4,4,0,0,1-.84-1.33,4.91,4.91,0,0,1-.28-1.75,4,4,0,0,1,.58-2.16,5.11,5.11,0,0,1,1.56-1.58,7.18,7.18,0,0,1,2.22-1,10,10,0,0,1,2.58-.33,11.58,11.58,0,0,1,4.21.72v3.37a7.07,7.07,0,0,0-4.11-1.23,5.32,5.32,0,0,0-1.32.15,3.61,3.61,0,0,0-1,.41,2.06,2.06,0,0,0-.64.64,1.51,1.51,0,0,0-.24.82,1.69,1.69,0,0,0,.24.93,2.1,2.1,0,0,0,.68.68,6.28,6.28,0,0,0,1.1.53l1.47.52c.73.3,1.39.6,2,.91a6.44,6.44,0,0,1,1.48,1.06,4.13,4.13,0,0,1,.95,1.36,4.64,4.64,0,0,1,.33,1.83,4.17,4.17,0,0,1-.6,2.26,5.16,5.16,0,0,1-1.59,1.6,7.3,7.3,0,0,1-2.3.93A12.77,12.77,0,0,1,211,54.3Z"/><path class="cls-2" d="M235.73,54.65a6.64,6.64,0,0,1-3,.56q-4.95,0-4.95-4.74V40.85H225v-3h2.84V33.9l3.85-1.1v5h4.07v3h-4.07v8.5a3.32,3.32,0,0,0,.55,2.16,2.26,2.26,0,0,0,1.82.65,2.64,2.64,0,0,0,1.7-.57Z"/><path class="cls-2" d="M248.91,41.5a3.25,3.25,0,0,0-2-.55,3.43,3.43,0,0,0-2.85,1.55,6.86,6.86,0,0,0-1.15,4.2v8.13h-3.85v-17h3.85v3.5H243a5.87,5.87,0,0,1,1.73-2.79,3.92,3.92,0,0,1,2.62-1,3.26,3.26,0,0,1,1.59.32Z"/><path class="cls-2" d="M264.68,54.83H261V52.18h-.07a5.63,5.63,0,0,1-5.16,3,5.43,5.43,0,0,1-3.93-1.36,4.75,4.75,0,0,1-1.42-3.6q0-4.82,5.55-5.61l5-.72q0-3.63-3.45-3.63A8.17,8.17,0,0,0,252,42.4V39a11.87,11.87,0,0,1,6.21-1.6q6.43,0,6.44,6.35ZM261,46.48l-3.57.5a5.56,5.56,0,0,0-2.5.81,2.36,2.36,0,0,0-.83,2.06,2.25,2.25,0,0,0,.77,1.77,3,3,0,0,0,2.07.69,3.8,3.8,0,0,0,2.91-1.24A4.37,4.37,0,0,0,261,48Z"/><path class="cls-2" d="M278.34,54.65a6.61,6.61,0,0,1-3,.56c-3.3,0-4.94-1.58-4.94-4.74V40.85h-2.84v-3h2.84V33.9l3.85-1.1v5h4.06v3h-4.06v8.5a3.38,3.38,0,0,0,.54,2.16,2.3,2.3,0,0,0,1.83.65,2.62,2.62,0,0,0,1.69-.57Z"/><path class="cls-2" d="M295.86,47.38H284.27A4.88,4.88,0,0,0,285.72,51a5.39,5.39,0,0,0,3.81,1.28,8.43,8.43,0,0,0,5-1.62v3.1a11.46,11.46,0,0,1-6.14,1.46,7.59,7.59,0,0,1-5.89-2.32,9.25,9.25,0,0,1-2.13-6.51,9.05,9.05,0,0,1,2.35-6.47,7.69,7.69,0,0,1,5.83-2.5,6.71,6.71,0,0,1,5.4,2.24,9.34,9.34,0,0,1,1.91,6.23Zm-3.72-2.72a5,5,0,0,0-1-3.23,3.28,3.28,0,0,0-2.66-1.16,3.77,3.77,0,0,0-2.81,1.21,5.57,5.57,0,0,0-1.42,3.18Z"/><path class="cls-2" d="M321,54.05a9.45,9.45,0,0,1-4.83,1.18,8.21,8.21,0,0,1-6.11-2.36,8.4,8.4,0,0,1-2.32-6.14,9.21,9.21,0,0,1,2.5-6.75A8.91,8.91,0,0,1,317,37.43a9.77,9.77,0,0,1,4.1.82v3.58a6.25,6.25,0,0,0-3.79-1.33,5.28,5.28,0,0,0-4,1.66,6,6,0,0,0-1.56,4.32,5.77,5.77,0,0,0,1.47,4.17,5.23,5.23,0,0,0,3.95,1.53A6.18,6.18,0,0,0,321,50.7Z"/><path class="cls-2" d="M332.4,55.23a8.44,8.44,0,0,1-6.29-2.38,8.64,8.64,0,0,1-2.34-6.32,8.38,8.38,0,0,1,9-9.1A8.15,8.15,0,0,1,339,39.77a9,9,0,0,1,2.23,6.5,8.89,8.89,0,0,1-2.4,6.51A8.63,8.63,0,0,1,332.4,55.23Zm.18-14.73A4.42,4.42,0,0,0,329,42.08a6.62,6.62,0,0,0-1.31,4.35A6.2,6.2,0,0,0,329,50.64a4.47,4.47,0,0,0,3.55,1.54,4.27,4.27,0,0,0,3.5-1.51,6.73,6.73,0,0,0,1.22-4.3A6.84,6.84,0,0,0,336.08,42,4.22,4.22,0,0,0,332.58,40.5Z"/><path class="cls-2" d="M360.31,54.83h-3.86V45.25q0-4.76-3.37-4.76a3.67,3.67,0,0,0-2.9,1.32A4.92,4.92,0,0,0,349,45.14v9.69h-3.86v-17H349v2.82h.07a6.07,6.07,0,0,1,5.51-3.22,5.12,5.12,0,0,1,4.23,1.8,8.08,8.08,0,0,1,1.47,5.21Z"/><path class="cls-2" d="M387.63,34.38h-8.9v7.15h8.2v3.34h-8.2v10h-4V31h12.85Z"/><path class="cls-2" d="M403.34,54.83H399.6V52.18h-.06a5.65,5.65,0,0,1-5.17,3,5.4,5.4,0,0,1-3.92-1.36,4.75,4.75,0,0,1-1.42-3.6q0-4.82,5.54-5.61l5.05-.72q0-3.63-3.45-3.63a8.16,8.16,0,0,0-5.48,2.09V39a11.87,11.87,0,0,1,6.21-1.6q6.44,0,6.44,6.35Zm-3.72-8.35-3.57.5a5.51,5.51,0,0,0-2.5.81,2.34,2.34,0,0,0-.84,2.06,2.28,2.28,0,0,0,.77,1.77,3,3,0,0,0,2.07.69,3.78,3.78,0,0,0,2.91-1.24A4.37,4.37,0,0,0,399.62,48Z"/><path class="cls-2" d="M420.2,54.05a9.45,9.45,0,0,1-4.83,1.18,8.21,8.21,0,0,1-6.11-2.36,8.4,8.4,0,0,1-2.32-6.14,9.21,9.21,0,0,1,2.5-6.75,8.91,8.91,0,0,1,6.68-2.55,9.77,9.77,0,0,1,4.1.82v3.58a6.24,6.24,0,0,0-3.78-1.33,5.29,5.29,0,0,0-4,1.66,6,6,0,0,0-1.56,4.32,5.77,5.77,0,0,0,1.47,4.17,5.23,5.23,0,0,0,4,1.53,6.16,6.16,0,0,0,3.91-1.48Z"/><path class="cls-2" d="M438.42,47.38H426.83A4.88,4.88,0,0,0,428.28,51a5.37,5.37,0,0,0,3.81,1.28,8.43,8.43,0,0,0,5-1.62v3.1A11.46,11.46,0,0,1,431,55.23a7.58,7.58,0,0,1-5.89-2.32,9.25,9.25,0,0,1-2.13-6.51,9.05,9.05,0,0,1,2.35-6.47,7.69,7.69,0,0,1,5.83-2.5,6.72,6.72,0,0,1,5.4,2.24,9.34,9.34,0,0,1,1.91,6.23Zm-3.72-2.72a5,5,0,0,0-1-3.23,3.28,3.28,0,0,0-2.66-1.16,3.77,3.77,0,0,0-2.81,1.21,5.51,5.51,0,0,0-1.42,3.18Z"/><path class="cls-2" d="M446,52.38h-.06v2.45h-3.86V29.66h3.86V40.82H446a6.32,6.32,0,0,1,5.78-3.39,6.06,6.06,0,0,1,5,2.29,9.54,9.54,0,0,1,1.82,6.11,10.62,10.62,0,0,1-2.05,6.84A6.73,6.73,0,0,1,451,55.23,5.48,5.48,0,0,1,446,52.38Zm-.1-6.76v2.11a4.49,4.49,0,0,0,1.19,3.15,4.18,4.18,0,0,0,6.37-.37,7.75,7.75,0,0,0,1.23-4.66,6.13,6.13,0,0,0-1.14-3.93,3.77,3.77,0,0,0-3.08-1.42A4.13,4.13,0,0,0,447.16,42,5.38,5.38,0,0,0,445.9,45.62Z"/><path class="cls-2" d="M470.11,55.23a8.44,8.44,0,0,1-6.29-2.38,8.64,8.64,0,0,1-2.34-6.32,8.38,8.38,0,0,1,9-9.1,8.15,8.15,0,0,1,6.21,2.34,9,9,0,0,1,2.23,6.5,8.89,8.89,0,0,1-2.4,6.51A8.63,8.63,0,0,1,470.11,55.23Zm.18-14.73a4.42,4.42,0,0,0-3.57,1.58,6.62,6.62,0,0,0-1.31,4.35,6.2,6.2,0,0,0,1.33,4.21,4.47,4.47,0,0,0,3.55,1.54,4.27,4.27,0,0,0,3.5-1.51,6.73,6.73,0,0,0,1.22-4.3A6.84,6.84,0,0,0,473.79,42,4.22,4.22,0,0,0,470.29,40.5Z"/><path class="cls-2" d="M490.41,55.23a8.4,8.4,0,0,1-6.28-2.38,8.61,8.61,0,0,1-2.35-6.32,8.4,8.4,0,0,1,9.05-9.1A8.18,8.18,0,0,1,497,39.77a9.07,9.07,0,0,1,2.22,6.5,8.89,8.89,0,0,1-2.4,6.51A8.63,8.63,0,0,1,490.41,55.23Zm.18-14.73A4.39,4.39,0,0,0,487,42.08a6.57,6.57,0,0,0-1.32,4.35A6.25,6.25,0,0,0,487,50.64a4.48,4.48,0,0,0,3.55,1.54,4.25,4.25,0,0,0,3.5-1.51,6.73,6.73,0,0,0,1.22-4.3A6.84,6.84,0,0,0,494.09,42,4.21,4.21,0,0,0,490.59,40.5Z"/><path class="cls-2" d="M518.6,54.83h-4.88l-6.61-8.17h-.06v8.17h-3.87V29.66h3.87v16h.06l6.25-7.79H518L511,46Z"/><path class="cls-2" d="M63.5,66V46.22h6.64l1-7.7H63.5V33.6c0-2.23.62-3.75,3.82-3.75H71.4V23a56.13,56.13,0,0,0-6-.3c-5.88,0-9.9,3.59-9.9,10.18v5.68H48.9v7.7h6.65V66Z"/></g></g></svg>