<svg xmlns="http://www.w3.org/2000/svg" viewBox="0 0 450.77 365.15"><defs><style>.cls-1{fill:#927e4d;}.cls-2{fill:#23243c;}.cls-3,.cls-6{fill:#fff;}.cls-4{fill:#3b4f95;}.cls-4,.cls-6{stroke:#867b56;}.cls-4,.cls-5,.cls-6{stroke-miterlimit:10;}.cls-5{fill:#2e4e99;stroke:#8b7c53;}.cls-6{stroke-width:0.75px;}</style></defs><title>logo_millos</title><g id="Capa_2" data-name="Capa 2"><g id="Capa_1-2" data-name="Capa 1"><path class="cls-1" d="M182.45,97.86a30.74,30.74,0,0,1-7.12-19.65,30.42,30.42,0,0,1,7.12-19.58,10.85,10.85,0,0,1,1-1.16c-.36-.22-.65-.33-1-.55a24,24,0,0,0-12-3.12,25.38,25.38,0,0,0-5.8.65,24.46,24.46,0,0,0,0,47.57v0a25.4,25.4,0,0,0,5.81.73,24,24,0,0,0,12-3.19h0a7.22,7.22,0,0,0,1-.58,13.55,13.55,0,0,1-1-1.09Z"/><path class="cls-1" d="M194.42,83.06a30.78,30.78,0,0,0,.51-6.69,18.79,18.79,0,0,0-.37-2.62c-.09-.43-.19-.87-.3-1.3s-.23-.79-.33-1.21a24.44,24.44,0,0,0-5.73-9.86,24.46,24.46,0,0,0,0,33.7s2-2.32,2.12-2.55a23.65,23.65,0,0,0,1.77-2.85,24.75,24.75,0,0,0,1.87-4.52A17,17,0,0,0,194.42,83.06Z"/><path class="cls-1" d="M363.08,184.19l-.14-2.54-.22-2.54-.36-2.54L362,174l-.43-2.61L361,168.9l-.58-2.54-.66-2.54-.73-2.54-.73-2.54-.87-2.61-.87-2.61-1.67-4.21-1.74-4.13-1.67-3.92-1.67-3.76-1.38-3.26-1.16-3.12L346.15,128l-.94-3-.8-3-.66-2.83-.5-2.83-.43-2.76-.29-2.76-.22-2.68-.07-2.61.07-2.61.14-2.54.27-2.54.36-2.54.5-2.47.5-2.47.66-2.54.73-2.47.83-2.41.94-2.47,1-2.47,1.09-2.47,1.23-2.5,1.31-2.54,1.36-2.56,1.45-2.54,1.59-2.54,1.6-2.54,1.74-2.61,1.74-2.61,4.72-6.67L324.2,0C288,24.32,262.48,23.5,225,1.16,189.74,23.71,163.16,23.86,126.57,0L84.68,48.34l4.93,7,2,3,1.88,2.93,1.75,2.83,1.59,2.9,1.51,2.8L99.7,72.7,101,75.38l1.16,2.76,1,2.68.94,2.68.87,2.61.73,2.68.58,2.61.5,2.61.43,2.61.29,2.61.21,2.61.07,2.61V107l-.14,2.68-.24,2.68-.29,2.68-.43,2.76-.5,2.76-.66,2.75-.8,2.9-.87,2.9-.94,2.9-1.09,3-1.23,3-1.31,3.12-1.67,3.92-.94,2.25-.87,2.25L95,151.8l-.8,2.18-.73,2.18-.73,2.18-.66,2.18-.66,2.18-.58,2.11L90.24,167l-.5,2.18-.43,2.18-.43,2.18-.29,2.18-.29,2.18L88,180l-.14,2.18-.14,2.25-.07,2.18v2.24l.07,2.25.14,2.18.23,2.25.22,2.25.36,2.32L89,202.4l.5,2.32L90,207l.66,2.32.66,2.39.7,2.39.94,2.61,2.9,6.23,3,4.71,3.13,4.21,3.34,3.84,3.49,3.47,3.7,3.12c34.42,25.31,78.85,16.17,112.83,44.52,35.36-29.81,85-18,118.55-48.75l4-4.64,1.82-2.54,1.59-2.39,1.45-2.32,1.31-2.39,1.31-2.47,1.09-2.39,1-2.46,1-2.35.87-2.47.8-2.47.66-2.47.58-2.47.5-2.54.43-2.47.29-2.54.29-2.54.14-2.47.07-2.47-.07-2.54Zm-127.2-100a30.63,30.63,0,0,1-24.17,24.17,37.61,37.61,0,0,1-5.74.5,30.35,30.35,0,0,1-12.1-2.47v-.05a34,34,0,0,1-5.68-3.16,34,34,0,0,1-5.73,3.19h0a30.29,30.29,0,0,1-12,2.47,38.59,38.59,0,0,1-5.81-.5v0a30.61,30.61,0,0,1,0-60.11h0a31.19,31.19,0,0,1,5.81-.59,30.29,30.29,0,0,1,12,2.47v0a34,34,0,0,1,5.74,3.18,34,34,0,0,1,5.68-3.16v0A30.35,30.35,0,0,1,206,47.61v0a30.23,30.23,0,0,1,5.74.58A30.63,30.63,0,0,1,235.87,84.17Z"/><path class="cls-1" d="M211.71,54.45A24.31,24.31,0,0,0,206,53.8l-.81,0a25.61,25.61,0,0,0-4.76.83c-1.56.41-3.09.92-4.61,1.47A9.87,9.87,0,0,0,193,57.47c.29.36.62.75.94,1.18A30,30,0,0,1,201,78.21a30.34,30.34,0,0,1-7.12,19.65c-.29.36-.66.72-.94,1.09a6.6,6.6,0,0,0,.94.58v0A24.12,24.12,0,0,0,206,102.75a25.24,25.24,0,0,0,5.74-.73,24.49,24.49,0,0,0,0-47.57Z"/><path class="cls-2" d="M182.45,97.86a30.74,30.74,0,0,1-7.12-19.65,30.42,30.42,0,0,1,7.12-19.58,10.85,10.85,0,0,1,1-1.16c-.36-.22-.65-.33-1-.55a24,24,0,0,0-12-3.12,25.38,25.38,0,0,0-5.8.65,24.46,24.46,0,0,0,0,47.57v0a25.4,25.4,0,0,0,5.81.73,24,24,0,0,0,12-3.19h0a7.22,7.22,0,0,0,1-.58,13.55,13.55,0,0,1-1-1.09Z"/><path class="cls-2" d="M194.42,83.06a30.78,30.78,0,0,0,.51-6.69,18.79,18.79,0,0,0-.37-2.62c-.09-.43-.19-.87-.3-1.3s-.23-.79-.33-1.21a24.44,24.44,0,0,0-5.73-9.86,24.46,24.46,0,0,0,0,33.7s2-2.32,2.12-2.55a23.65,23.65,0,0,0,1.77-2.85,24.75,24.75,0,0,0,1.87-4.52A17,17,0,0,0,194.42,83.06Z"/><path class="cls-2" d="M349,151.59l-1.67-4-1.67-3.92L344,139.88c-15.94-36.46-6.57-62,14.12-91.07L322.9,8.06C288,29,260.16,27.19,225,8.27c-34.42,18.5-63.61,19.93-97.15-.21L92.73,48.76c23.67,33.29,27.73,60.19,12.48,94.85l-1.67,3.92c-9.69,23.05-13.29,42.68-4.65,66.85l2.61,5.51c27.37,46.77,87.13,25.88,123.94,58.74,31.15-27.81,77.1-16.11,110.07-41.29l3.92-3.63,3.63-4.13c17-23.21,17-47.86,7.55-74ZM235.87,84.17a30.63,30.63,0,0,1-24.17,24.17,37.61,37.61,0,0,1-5.74.5,30.35,30.35,0,0,1-12.1-2.47v-.05a34,34,0,0,1-5.68-3.16,34,34,0,0,1-5.73,3.19h0a30.29,30.29,0,0,1-12,2.47,38.59,38.59,0,0,1-5.81-.5v0a30.61,30.61,0,0,1,0-60.11h0a31.19,31.19,0,0,1,5.81-.59,30.29,30.29,0,0,1,12,2.47v0a34,34,0,0,1,5.74,3.18,34,34,0,0,1,5.68-3.16v0A30.35,30.35,0,0,1,206,47.61v0a30.23,30.23,0,0,1,5.74.58A30.63,30.63,0,0,1,235.87,84.17Z"/><path class="cls-2" d="M211.71,54.45A24.31,24.31,0,0,0,206,53.8l-.81,0a25.61,25.61,0,0,0-4.76.83c-1.56.41-3.09.92-4.61,1.47A9.87,9.87,0,0,0,193,57.47c.29.36.62.75.94,1.18A30,30,0,0,1,201,78.21a30.34,30.34,0,0,1-7.12,19.65c-.29.36-.66.72-.94,1.09a6.6,6.6,0,0,0,.94.58v0A24.12,24.12,0,0,0,206,102.75a25.24,25.24,0,0,0,5.74-.73,24.49,24.49,0,0,0,0-47.57Z"/><path class="cls-3" d="M182.45,97.86a30.74,30.74,0,0,1-7.12-19.65,30.42,30.42,0,0,1,7.12-19.58,10.85,10.85,0,0,1,1-1.16c-.36-.22-.65-.33-1-.55a24,24,0,0,0-12-3.12,25.38,25.38,0,0,0-5.8.65,24.46,24.46,0,0,0,0,47.57v0a25.4,25.4,0,0,0,5.81.73,24,24,0,0,0,12-3.19h0a7.22,7.22,0,0,0,1-.58,13.55,13.55,0,0,1-1-1.09Z"/><path class="cls-3" d="M211.71,54.45A24.31,24.31,0,0,0,206,53.8l-.81,0a25.61,25.61,0,0,0-4.76.83c-1.56.41-3.09.92-4.61,1.47A9.87,9.87,0,0,0,193,57.47c.29.36.62.75.94,1.18A30,30,0,0,1,201,78.21a30.34,30.34,0,0,1-7.12,19.65c-.29.36-.66.72-.94,1.09a6.6,6.6,0,0,0,.94.58v0A24.12,24.12,0,0,0,206,102.75a25.24,25.24,0,0,0,5.74-.73,24.49,24.49,0,0,0,0-47.57Z"/><path class="cls-3" d="M194.42,83.06a30.78,30.78,0,0,0,.51-6.69,18.79,18.79,0,0,0-.37-2.62c-.09-.43-.19-.87-.3-1.3s-.23-.79-.33-1.21a24.44,24.44,0,0,0-5.73-9.86,24.46,24.46,0,0,0,0,33.7s2-2.32,2.12-2.55a23.65,23.65,0,0,0,1.77-2.85,24.75,24.75,0,0,0,1.87-4.52A17,17,0,0,0,194.42,83.06Z"/><path class="cls-3" d="M350.13,49.16l-28.53-33c-35.07,21.76-66.07,21.24-96.13-.66-29.48,21.1-61.2,22.41-96.27.66l-28.55,33c52.21,70.35-3.82,89.63-.8,144.52,10.82,74.66,92.64,43.84,125.54,76.54,32.9-32.67,114.72-1.85,125.54-76.54C353.9,138.79,297.92,119.49,350.13,49.16Zm-114.25,35a30.63,30.63,0,0,1-24.17,24.17,37.61,37.61,0,0,1-5.74.5,30.35,30.35,0,0,1-12.1-2.47v-.05a34,34,0,0,1-5.68-3.16,34,34,0,0,1-5.73,3.19h0a30.29,30.29,0,0,1-12,2.47,38.59,38.59,0,0,1-5.81-.5v0a30.61,30.61,0,0,1,0-60.11h0a31.19,31.19,0,0,1,5.81-.59,30.29,30.29,0,0,1,12,2.47v0a34,34,0,0,1,5.74,3.18,34,34,0,0,1,5.68-3.16v0A30.35,30.35,0,0,1,206,47.61v0a30.23,30.23,0,0,1,5.74.58A30.63,30.63,0,0,1,235.87,84.17Z"/><path class="cls-4" d="M337.28,47.54,330,39.27l-98.56,98.45h0l-94.13,94c25.85,14,62.07,4.86,88,27.05a61.79,61.79,0,0,1,6.12-4.59c37.68-24.34,91.84,2.75,108.75-60.76a33.93,33.93,0,0,0,1.31-8.56C342.15,143.18,291.62,121.79,337.28,47.54Z"/><path id="Path_838" data-name="Path 838" class="cls-3" d="M327.55,158.3c10.46,24.43,6.9,52-17.06,67.37l-3.13,1.74L304,228.86c-25.12,9.06-51.55,5.87-75.63,19.36l-4,2.76-1.45-1c-23.31-15-50.42-11.53-75.63-20.14L328,49.35l-8.21,16C304.9,101.88,312.3,124.5,327.55,158.3Z"/><path class="cls-5" d="M182.45,97.86a30.74,30.74,0,0,1-7.12-19.65,30.42,30.42,0,0,1,7.12-19.58,10.85,10.85,0,0,1,1-1.16c-.36-.22-.65-.33-1-.55a24,24,0,0,0-12-3.12,25.38,25.38,0,0,0-5.8.65,24.46,24.46,0,0,0,0,47.57v0a25.4,25.4,0,0,0,5.81.73,24,24,0,0,0,12-3.19h0a7.22,7.22,0,0,0,1-.58,13.55,13.55,0,0,1-1-1.09Z"/><path class="cls-5" d="M211.71,54.45A24.31,24.31,0,0,0,206,53.8l-.81,0a25.61,25.61,0,0,0-4.76.83c-1.56.41-3.09.92-4.61,1.47A9.87,9.87,0,0,0,193,57.47c.29.36.62.75.94,1.18A30,30,0,0,1,201,78.21a30.34,30.34,0,0,1-7.12,19.65c-.29.36-.66.72-.94,1.09a6.6,6.6,0,0,0,.94.58v0A24.12,24.12,0,0,0,206,102.75a25.24,25.24,0,0,0,5.74-.73,24.49,24.49,0,0,0,0-47.57Z"/><path class="cls-5" d="M194.42,83.06a30.78,30.78,0,0,0,.51-6.69,18.79,18.79,0,0,0-.37-2.62c-.09-.43-.19-.87-.3-1.3s-.23-.79-.33-1.21a24.44,24.44,0,0,0-5.73-9.86,24.46,24.46,0,0,0,0,33.7s2-2.32,2.12-2.55a23.65,23.65,0,0,0,1.77-2.85,24.75,24.75,0,0,0,1.87-4.52A17,17,0,0,0,194.42,83.06Z"/><path class="cls-5" d="M318.49,26.45c-19,10.58-57.81,20.07-87.14,1.15a59.7,59.7,0,0,1-6-4.49c-29.84,24.73-72.83,14.71-93.23,3.33l0-.06L113.3,47.55a34.07,34.07,0,0,0,2,3.37q1,1.67,1.93,3.36,1.8,3.22,3.46,6.51c2,4,3.83,8,5.43,12.18a103.47,103.47,0,0,1,3.61,11.16,83.8,83.8,0,0,1,2,10.25,73,73,0,0,1,.61,9.44,69.56,69.56,0,0,1-.56,8.74,73.51,73.51,0,0,1-1.52,8.14c-.63,2.59-1.39,5.14-2.26,7.65s-1.79,4.88-2.79,7.27-2,4.68-3.1,7-2.13,4.55-3.2,6.83-2.09,4.5-3.08,6.77-1.91,4.51-2.75,6.81-1.58,4.61-2.2,7a71.71,71.71,0,0,0-1.51,7.56,42.91,42.91,0,0,0-.23,7.7,40.19,40.19,0,0,0,1.6,9.7q.93,3.27,2.09,6.48a71.86,71.86,0,0,0,5,11,54.16,54.16,0,0,0,6,8.59,47.11,47.11,0,0,0,6.89,6.54l.77.58,99.81-99.68,94.21-94.07ZM235.87,84.17a30.63,30.63,0,0,1-24.17,24.17,37.61,37.61,0,0,1-5.74.5,30.35,30.35,0,0,1-12.1-2.47v-.05a34,34,0,0,1-5.68-3.16,34,34,0,0,1-5.73,3.19h0a30.29,30.29,0,0,1-12,2.47,38.59,38.59,0,0,1-5.81-.5v0a30.61,30.61,0,0,1,0-60.11h0a31.19,31.19,0,0,1,5.81-.59,30.29,30.29,0,0,1,12,2.47v0a34,34,0,0,1,5.74,3.18,34,34,0,0,1,5.68-3.16v0A30.35,30.35,0,0,1,206,47.61v0a30.23,30.23,0,0,1,5.74.58A30.63,30.63,0,0,1,235.87,84.17Z"/><path id="Path_842" data-name="Path 842" class="cls-5" d="M231.63,212.19l14.45-60.33,19.6,36.33L285.22,152l14.45,60.34h-5.81L283,172.53l-17.43,32.06-17.36-32.2-10.82,39.8Z"/><path class="cls-6" d="M211.71,48.22a30.23,30.23,0,0,0-5.74-.58v0a30.35,30.35,0,0,0-12.1,2.47v0a34,34,0,0,0-5.68,3.16,34,34,0,0,0-5.74-3.18v0a30.29,30.29,0,0,0-12-2.47,31.19,31.19,0,0,0-5.81.59h0a30.61,30.61,0,0,0,0,60.11v0a38.59,38.59,0,0,0,5.81.5,30.29,30.29,0,0,0,12-2.47h0a34,34,0,0,0,5.73-3.19,34,34,0,0,0,5.68,3.16v.05a30.35,30.35,0,0,0,12.1,2.47,37.61,37.61,0,0,0,5.74-.5,30.63,30.63,0,0,0,0-60.11Zm-29.26,51.3h0a24,24,0,0,1-12,3.19,25.4,25.4,0,0,1-5.81-.73v0a24.46,24.46,0,0,1,0-47.57,25.38,25.38,0,0,1,5.8-.65,24,24,0,0,1,12,3.12h0c.35.22.64.33,1,.55a10.86,10.86,0,0,0-1,1.16h0a30.42,30.42,0,0,0-7.12,19.58,30.74,30.74,0,0,0,7.12,19.65h0a13.55,13.55,0,0,0,1,1.09A7.22,7.22,0,0,1,182.45,99.53Zm11.49-14.36a24.74,24.74,0,0,1-1.87,4.52,23.66,23.66,0,0,1-1.77,2.85c-.16.23-2.08,2.59-2.12,2.55a24.38,24.38,0,0,1,0-33.7,24.44,24.44,0,0,1,5.73,9.86c.11.41.24.85.33,1.21s.21.86.3,1.3a18.8,18.8,0,0,1,.37,2.62,30.78,30.78,0,0,1-.51,6.69A17,17,0,0,1,193.94,85.17ZM206,53.8A24.46,24.46,0,0,1,211.71,102a25.24,25.24,0,0,1-5.74.73,24.12,24.12,0,0,1-12.05-3.17v0a6.6,6.6,0,0,1-.94-.58c.29-.36.65-.73.94-1.09A30.34,30.34,0,0,0,201,78.21a30,30,0,0,0-7.11-19.56c-.32-.43-.65-.82-.94-1.18a9.87,9.87,0,0,1,2.81-1.33c1.52-.55,3-1.06,4.61-1.47a25.61,25.61,0,0,1,4.76-.83Z"/><path class="cls-3" d="M322.43,365.15V360.9a12,12,0,0,0,8.77-3.43,11.45,11.45,0,0,0,3.42-8.63,11.27,11.27,0,0,0-3.42-8.36,12,12,0,0,0-8.77-3.42h0v-4.25a17.11,17.11,0,0,1,12.05,4.52,16.36,16.36,0,0,1,0,23.15,17.85,17.85,0,0,1-12.05,4.66Zm37.94-13.56-3.42-2.19a13.17,13.17,0,0,1-4.52-3.83,7,7,0,0,1-1.37-4.38,7.5,7.5,0,0,1,2.6-6,9.5,9.5,0,0,1,6.71-2.33,12.15,12.15,0,0,1,7.12,2.19v5.2a10.17,10.17,0,0,0-7.26-3.29,6.2,6.2,0,0,0-3.7,1,3.14,3.14,0,0,0-1.37,2.6,4.36,4.36,0,0,0,1.1,2.74,14.38,14.38,0,0,0,3.29,2.6l3.43,2.05c3.83,2.19,5.75,5.2,5.75,8.63a8,8,0,0,1-2.46,6.16,8.88,8.88,0,0,1-6.57,2.46,13.54,13.54,0,0,1-8.5-2.88v-5.75c2.33,3,5.21,4.66,8.36,4.66a5.13,5.13,0,0,0,3.56-1.23,3.84,3.84,0,0,0,1.51-3C364.62,355,363.11,353.23,360.37,351.59Zm-37.94-18.77v4.25a12.07,12.07,0,0,0-8.9,3.42,12.41,12.41,0,0,0,0,17.12,12.68,12.68,0,0,0,8.76,3.29h.14v4.24H322a16,16,0,0,1-11.78-4.66,14.71,14.71,0,0,1-4.79-11.37,15.9,15.9,0,0,1,4.79-11.78,16.65,16.65,0,0,1,12.05-4.52Zm-61.37,18.9v-4.8a5.36,5.36,0,0,0,1.92-.55,3.48,3.48,0,0,0,1.92-1.78,4.21,4.21,0,0,0,.82-2.6,4.93,4.93,0,0,0-.82-2.74,4.25,4.25,0,0,0-2.19-1.64,14.73,14.73,0,0,0-1.65-.41v-4a11.31,11.31,0,0,1,6.44,2.33,7.94,7.94,0,0,1,2.87,6.44,9.34,9.34,0,0,1-1.37,4.79,8.84,8.84,0,0,1-4,3,16.46,16.46,0,0,1,2.87,2.6,69.34,69.34,0,0,1,4.11,6c1.09,1.78,1.91,3.15,2.6,4.11l1.64,2.19h-5.34l-1.37-2.05c0-.14-.14-.28-.27-.41l-.82-1.23-1.37-2.33-1.51-2.47a20.54,20.54,0,0,0-2.6-3,8.2,8.2,0,0,0-1.92-1.51Zm26.57-18.49h4.52v31.5h-4.52Zm-26.57,0v4a21.58,21.58,0,0,0-3.15-.13h-1.37v10h1.64c1.23,0,2.19-.14,2.87-.14v4.8a.13.13,0,0,0-.13-.14,6.52,6.52,0,0,0-3.15-.55h-1.23v13.7H252v-31.5h9Zm-35.88,22.19v-4H230l-4.79-11.1V333.1h1.37l14.11,31.64H236l-4.11-9.31Zm0-22.32v7.26l-.28-.41-4.66,11.51h4.93v4h-6.71l-4,9.31h-4.66L223.4,333.1ZM139.3,365.15V360.9a11.76,11.76,0,0,0,8.76-3.43,11.56,11.56,0,0,0,3.56-8.63,11.39,11.39,0,0,0-3.56-8.36,11.65,11.65,0,0,0-8.63-3.42h-.13v-4.25a16.66,16.66,0,0,1,12.05,4.52A15.42,15.42,0,0,1,156.28,349a14.92,14.92,0,0,1-4.93,11.51,17.59,17.59,0,0,1-12.05,4.66Zm55.34-31.91h4.25v31.5H195L174,340.49v24.24h-4.25v-31.5h3.56l21.37,24.51Zm-169.57,0h4.25v31.5H24.79V340.22l-9.72,12.19h-.82L4.52,340.22v24.52H0v-31.5H4.25l10.41,13,10.41-13Zm114.23-.41v4.25a11.72,11.72,0,0,0-12.19,12.05,11.9,11.9,0,0,0,3.43,8.49,12.22,12.22,0,0,0,8.77,3.29h0v4.24H139c-4.79,0-8.77-1.51-11.78-4.66a15.2,15.2,0,0,1-4.79-11.37,15.91,15.91,0,0,1,4.79-11.78,16.66,16.66,0,0,1,12.05-4.52Zm-95.47.41h4.52v31.5H43.83v-31.5Zm19.31,0h4.52v27.39H81.77v4.11H63.14v-31.5Zm30.41,0h4.52v27.39h14.11v4.11H93.55Z"/><path class="cls-1" d="M407.49,333.24V339H393.65v7.12h13.83v5.75H393.65v12.87h-7.81v-31.5Zm43.28,21.91V362a26.19,26.19,0,0,1-12.33,3.15c-5.62,0-10-1.51-13.42-4.66a14.83,14.83,0,0,1-4.93-11.37,15.11,15.11,0,0,1,5.21-11.51c3.56-3.15,8.08-4.79,13.7-4.79a23,23,0,0,1,11.5,2.74v7.12a22.32,22.32,0,0,0-11-3.29,12.65,12.65,0,0,0-8.22,2.74,9,9,0,0,0,0,13.7c2.05,1.92,4.79,2.74,8.08,2.74a17.31,17.31,0,0,0,4.66-.55A50.75,50.75,0,0,0,450.77,355.15Z"/></g></g></svg>