<svg xmlns="http://www.w3.org/2000/svg" viewBox="0 0 281.41 286.84"><defs><style>.cls-1{opacity:0.03;}.cls-2{fill:#927e4d;}</style></defs><title>logo_bg</title><g id="Capa_2" data-name="Capa 2"><g id="Capa_1-2" data-name="Capa 1"><g class="cls-1"><path class="cls-2" d="M278.4,184.19l-.14-2.54-.22-2.54-.36-2.54-.36-2.54-.43-2.61-.58-2.54-.58-2.54-.66-2.54-.73-2.54-.73-2.54-.87-2.61-.87-2.61-1.67-4.21-1.75-4.13-1.67-3.92-1.67-3.76-1.38-3.26-1.16-3.12L261.47,128l-.94-3-.8-3-.66-2.83-.5-2.83-.43-2.76-.29-2.76-.22-2.68-.07-2.61.07-2.61.14-2.54.27-2.54.36-2.54.5-2.47.5-2.47.66-2.54.73-2.47.83-2.41.94-2.47,1-2.47,1.09-2.47,1.23-2.5,1.31-2.54,1.36-2.56L270,65.39l1.59-2.54,1.6-2.54,1.75-2.61,1.74-2.61,4.72-6.67L239.52,0c-36.15,24.32-61.72,23.5-99.18,1.16C105.06,23.71,78.49,23.86,41.89,0L0,48.34l4.93,7,2,3,1.88,2.93,1.75,2.83,1.59,2.9,1.51,2.8L15,72.7l1.31,2.68,1.16,2.76,1,2.68.94,2.68.87,2.61L21,88.79l.58,2.61.5,2.61.43,2.61.29,2.61.21,2.61.07,2.61V107L23,109.72l-.24,2.68-.29,2.68L22,117.84l-.5,2.76-.66,2.75-.8,2.9-.87,2.9-.94,2.9-1.09,3-1.23,3-1.31,3.12L13,145.13,12,147.38l-.87,2.25-.87,2.18L9.49,154l-.73,2.18L8,158.32l-.66,2.18-.66,2.18-.58,2.1L5.56,167l-.5,2.18-.43,2.18-.43,2.18-.29,2.18-.29,2.18L3.31,180l-.14,2.18L3,184.43,3,186.61v2.24L3,191.09l.14,2.18.23,2.25.22,2.25L4,200.08l.36,2.32.5,2.32.5,2.32L6,209.35l.66,2.39.7,2.39.94,2.61L11.2,223l3,4.71,3.13,4.21,3.34,3.84,3.49,3.47,3.7,3.12c34.42,25.31,78.85,16.18,112.83,44.52,35.36-29.81,85-18,118.55-48.75l4-4.64,1.82-2.54,1.59-2.39,1.45-2.32,1.31-2.39,1.31-2.47,1.09-2.39,1-2.46,1-2.35.87-2.47.8-2.47.66-2.47.58-2.47.5-2.54.43-2.47.29-2.54.29-2.54.14-2.47.07-2.47-.07-2.54Zm-20,45.39-3.63,4.13-3.92,3.63c-33,25.18-78.92,13.48-110.07,41.29-36.81-32.85-96.57-12-123.94-58.73l-2.61-5.51c-8.64-24.17-5-43.8,4.65-66.85l1.67-3.92C35.78,108.95,31.72,82,8.05,48.76L43.2,8.06c33.54,20.14,62.73,18.71,97.15.21,35.13,18.92,63,20.74,97.87-.21l35.21,40.75c-20.69,29.08-30.06,54.61-14.12,91.07l1.67,3.76,1.67,3.92,1.67,4,1.59,4C275.37,181.72,275.37,206.38,258.38,229.58Z"/><path class="cls-2" d="M80,54.45c.62-.14,1.24-.25,1.87-.35-.63.1-1.25.21-1.87.35A24.46,24.46,0,0,0,66.24,93,24.47,24.47,0,0,1,80,54.45Z"/><path class="cls-2" d="M85.8,53.8h0Z"/><path class="cls-2" d="M69.55,96.6l.32.27Z"/><path class="cls-2" d="M80,102a24.42,24.42,0,0,1-8.1-3.62A24.41,24.41,0,0,0,80,102Z"/><path class="cls-2" d="M80,102h0a25.41,25.41,0,0,0,5.81.73A25.43,25.43,0,0,1,80,102Z"/><path class="cls-2" d="M97.77,99.52a24,24,0,0,1-6.94,2.65,24,24,0,0,0,6.94-2.65Z"/><path class="cls-2" d="M98.46,98.6c.11.11.21.24.32.34C98.67,98.83,98.57,98.71,98.46,98.6Z"/><path class="cls-2" d="M96.14,60.76c.28-.4.58-.8.88-1.19C96.72,60,96.43,60.35,96.14,60.76Z"/><path class="cls-2" d="M90.65,78.21h0a30.43,30.43,0,0,1,5.49-17.46A30.42,30.42,0,0,0,90.65,78.21Z"/><circle class="cls-2" cx="97.77" cy="97.86"/><path class="cls-2" d="M109.24,99.53a6.6,6.6,0,0,1-.63-.39,6.61,6.61,0,0,0,.63.39Z"/><path class="cls-2" d="M126.26,54.3a23.77,23.77,0,0,0-5-.49A23.77,23.77,0,0,1,126.26,54.3Z"/><path class="cls-2" d="M110.09,59.69a30.71,30.71,0,0,1,5.85,23.65,30.71,30.71,0,0,0-5.85-23.65Z"/><path class="cls-2" d="M108.3,98.95h0c.09-.12.2-.24.31-.36C108.5,98.71,108.39,98.83,108.3,98.95Z"/><path class="cls-2" d="M111.11,56.14a17.82,17.82,0,0,0-1.8.72A17.91,17.91,0,0,1,111.11,56.14Z"/><path class="cls-2" d="M108.61,57.85l-.31-.38Z"/><path class="cls-2" d="M145,72.41a24.41,24.41,0,0,0-2.2-5.72,24.39,24.39,0,0,1,1.78,18.89A24.36,24.36,0,0,0,145,72.41Z"/><path class="cls-2" d="M111.11,56.14c1.52-.55,3-1.06,4.61-1.47.73-.19,1.47-.36,2.22-.5-.75.14-1.49.31-2.22.5C114.16,55.08,112.63,55.59,111.11,56.14Z"/><path class="cls-2" d="M144.56,85.58c-.17.52-.36,1-.55,1.55C144.21,86.62,144.4,86.11,144.56,85.58Z"/><path class="cls-2" d="M121.29,102.75A25.22,25.22,0,0,0,127,102a24.89,24.89,0,0,0,2.4-.72,24.67,24.67,0,0,1-2.4.72A25.2,25.2,0,0,1,121.29,102.75Z"/><path class="cls-2" d="M105.62,92.54c-.11.15-1,1.22-1.56,1.92C104.65,93.76,105.52,92.69,105.62,92.54Z"/><path class="cls-2" d="M109.91,73.91a18.91,18.91,0,0,1,.32,2.28A18.91,18.91,0,0,0,109.91,73.91Z"/><path class="cls-2" d="M103.5,95.09a24.38,24.38,0,0,1,0-33.7c.25.26.49.53.72.8-.24-.27-.47-.54-.72-.8a24.46,24.46,0,0,0,0,33.7Z"/><path class="cls-2" d="M109.86,73.68q-.13-.62-.29-1.23l-.13-.47c0,.16.09.33.13.47Q109.73,73.06,109.86,73.68Z"/><path class="cls-2" d="M107.93,88.6a23.42,23.42,0,0,0,1.33-3.44q.15-.52.27-1-.12.53-.27,1A23.33,23.33,0,0,1,107.93,88.6Z"/><path class="cls-2" d="M105.62,92.54a23.58,23.58,0,0,0,1.77-2.85q.28-.53.54-1.08-.26.55-.54,1.08A23.61,23.61,0,0,1,105.62,92.54Z"/><path class="cls-2" d="M121.29,47.61a30.27,30.27,0,0,0-4.19.28A30.34,30.34,0,0,1,121.29,47.61Z"/><path class="cls-2" d="M121.29,108.84a37.59,37.59,0,0,0,5.74-.5,30.58,30.58,0,0,0,15.54-8.19A30.58,30.58,0,0,1,127,108.34,37.59,37.59,0,0,1,121.29,108.84Z"/><path class="cls-2" d="M111.32,107.18c-.72-.25-1.43-.51-2.13-.81C109.89,106.67,110.6,106.94,111.32,107.18Z"/><path class="cls-2" d="M80,48.22c.57-.11,1.15-.2,1.73-.28C81.13,48,80.56,48.11,80,48.22Z"/><path class="cls-2" d="M80,108.34h0a30.49,30.49,0,0,1-12-5.13A30.48,30.48,0,0,0,80,108.34Z"/><path class="cls-2" d="M151.2,84.17A30.63,30.63,0,0,0,127,48.22c-.74-.15-1.48-.26-2.22-.35.75.09,1.49.2,2.22.35A30.63,30.63,0,0,1,142.8,99.94,30.6,30.6,0,0,0,151.2,84.17Z"/><path class="cls-2" d="M109.19,106.32h0a33.91,33.91,0,0,1-5.68-3.16,33.94,33.94,0,0,1-3.59,2.15,33.94,33.94,0,0,0,3.59-2.15A33.91,33.91,0,0,0,109.19,106.32Z"/><path class="cls-2" d="M112.84,107.66a30.34,30.34,0,0,0,6.89,1.14A30.34,30.34,0,0,1,112.84,107.66Z"/><path class="cls-2" d="M58.57,92.3c-.34-.66-.67-1.33-1-2C57.9,91,58.23,91.64,58.57,92.3Z"/><ellipse class="cls-2" cx="79.98" cy="48.22" rx="0.01" transform="translate(-8.33 17.83) rotate(-12.09)"/><path class="cls-2" d="M55.71,72.5A30.61,30.61,0,0,1,80,48.23h0A30.61,30.61,0,0,0,57.61,90.29,30.46,30.46,0,0,1,55.71,72.5Z"/><path class="cls-2" d="M107.71,50.78q.73-.36,1.48-.69Q108.44,50.42,107.71,50.78Z"/><path class="cls-2" d="M97.77,106.34c.4-.17.79-.36,1.18-.55C98.56,106,98.17,106.17,97.77,106.34Z"/><path class="cls-2" d="M97.77,50.08h0q.75.33,1.49.69Q98.53,50.4,97.77,50.08Z"/><path class="cls-2" d="M265.45,49.16l-28.53-33c-35.07,21.76-66.07,21.24-96.13-.66-29.48,21.1-61.2,22.41-96.28.66L16,49.16c52.21,70.35-3.82,89.63-.8,144.52,10.82,74.66,92.64,43.84,125.54,76.54,32.9-32.67,114.72-1.85,125.54-76.54C269.22,138.79,213.24,119.49,265.45,49.16ZM46.07,227.53A47.11,47.11,0,0,1,39.19,221a54.13,54.13,0,0,1-6-8.59,71.75,71.75,0,0,1-5-11c-.78-2.13-1.47-4.3-2.09-6.48a40.16,40.16,0,0,1-1.59-9.7,42.89,42.89,0,0,1,.23-7.7A71.82,71.82,0,0,1,26.23,170c.62-2.36,1.37-4.68,2.2-7s1.77-4.57,2.75-6.81,2-4.52,3.08-6.77,2.14-4.55,3.2-6.83,2.12-4.64,3.1-7,1.94-4.82,2.79-7.27,1.63-5.07,2.26-7.65a73.6,73.6,0,0,0,1.52-8.14,69.48,69.48,0,0,0,.56-8.74,72.79,72.79,0,0,0-.62-9.44,83.67,83.67,0,0,0-2-10.25A103.57,103.57,0,0,0,41.46,73C39.87,68.82,38,64.76,36,60.79q-1.66-3.29-3.46-6.51-.95-1.69-1.93-3.36a34.16,34.16,0,0,1-2-3.37L47.36,26.39l0,.06c20.4,11.38,63.39,21.39,93.23-3.33a59.61,59.61,0,0,0,6,4.49C176,46.52,214.79,37,233.81,26.45l7.05,7.91-94.21,94.07L46.84,228.11Zm209.43-34.09c-16.91,63.51-71.06,36.42-108.75,60.76a62,62,0,0,0-6.12,4.59c-25.92-22.19-62.15-13.05-88-27.05l94.13-94,98.56-98.45,7.27,8.27c-45.66,74.25,4.87,95.64,4.21,137.34A33.92,33.92,0,0,1,255.51,193.44Z"/><path class="cls-2" d="M94.21,48.84c.72.21,1.43.43,2.13.69C95.64,49.27,94.93,49,94.21,48.84Z"/><path class="cls-2" d="M92.5,108.06a30.3,30.3,0,0,0,3.84-1.13A30.3,30.3,0,0,1,92.5,108.06Z"/><polygon class="cls-2" points="79.98 101.99 79.98 101.99 79.98 102.02 79.98 101.99"/><path class="cls-2" d="M111.32,107.18q.76.26,1.53.48Q112.07,107.44,111.32,107.18Z"/><path class="cls-2" d="M69.87,96.86a24.47,24.47,0,0,0,2,1.53A24.47,24.47,0,0,1,69.87,96.86Z"/><path class="cls-2" d="M85.79,102.72a24,24,0,0,0,5-.54A24,24,0,0,1,85.79,102.72Z"/><path class="cls-2" d="M81.87,54.1a25.46,25.46,0,0,1,3.78-.3A25.45,25.45,0,0,0,81.87,54.1Z"/><path class="cls-2" d="M98.78,98.94h0a7.25,7.25,0,0,1-1,.58A7.25,7.25,0,0,0,98.78,98.94Z"/><path class="cls-2" d="M90.65,78.21a30.74,30.74,0,0,0,7.12,19.65h0A30.74,30.74,0,0,1,90.65,78.21Z"/><path class="cls-2" d="M109.19,50.07h0a30.35,30.35,0,0,1,7.91-2.18A30.33,30.33,0,0,0,109.19,50.07Z"/><path class="cls-2" d="M98.78,57.48a10.8,10.8,0,0,0-1,1.16c-.26.31-.5.62-.75.93.24-.31.49-.62.75-.93A10.84,10.84,0,0,1,98.78,57.48Z"/><path class="cls-2" d="M142.8,99.94l-.23.21Z"/><path class="cls-2" d="M97.77,97.86c.22.26.45.5.69.74-.23-.24-.47-.48-.69-.74Z"/><path class="cls-2" d="M98.95,105.8l1-.49Z"/><path class="cls-2" d="M98.27,57.2c-.16-.08-.32-.17-.5-.28a24,24,0,0,0-12-3.12h0a24,24,0,0,1,12,3.12C98,57,98.11,57.12,98.27,57.2Z"/><path class="cls-2" d="M121.29,47.64a30.29,30.29,0,0,1,3.51.23A30.18,30.18,0,0,0,121.29,47.64Z"/><polygon class="cls-2" points="109.91 73.91 109.88 73.75 109.86 73.68 109.88 73.75 109.91 73.91"/><path class="cls-2" d="M109.24,99.58h0a24.11,24.11,0,0,0,10.47,3.12A24.12,24.12,0,0,1,109.24,99.58Z"/><path class="cls-2" d="M115.94,83.34a30.33,30.33,0,0,1-6.7,14.52c-.2.24-.42.48-.63.72.21-.24.43-.48.63-.72A30.33,30.33,0,0,0,115.94,83.34Z"/><path class="cls-2" d="M108.61,99.14c-.1-.07-.21-.12-.31-.19C108.4,99,108.51,99.07,108.61,99.14Z"/><path class="cls-2" d="M85.79,47.64a30.29,30.29,0,0,1,8.42,1.2,30.28,30.28,0,0,0-8.42-1.2,31.08,31.08,0,0,0-4.08.3A31.08,31.08,0,0,1,85.79,47.64Z"/><path class="cls-2" d="M108.61,57.85c.21.25.42.52.63.8C109,58.36,108.82,58.1,108.61,57.85Z"/><path class="cls-2" d="M108.31,57.47a5.7,5.7,0,0,1,1-.61A5.7,5.7,0,0,0,108.31,57.47Z"/><path class="cls-2" d="M69.55,96.6a24.45,24.45,0,0,1-2.26-2.27A24.45,24.45,0,0,0,69.55,96.6Z"/><path class="cls-2" d="M107.71,50.78a34,34,0,0,0-4.2,2.47,34,34,0,0,0-4.25-2.49,34.07,34.07,0,0,1,4.25,2.49A33.91,33.91,0,0,1,107.71,50.78Z"/><path class="cls-2" d="M117.94,54.17a21.47,21.47,0,0,1,2.54-.33l.8,0-.8,0A21.37,21.37,0,0,0,117.94,54.17Z"/><path class="cls-2" d="M127,54.45l-.76-.15.76.15a24.48,24.48,0,0,1,15.75,12.24A24.47,24.47,0,0,0,127,54.45Z"/><polygon class="cls-2" points="79.97 48.23 79.97 48.23 79.97 48.23 79.97 48.23"/><path class="cls-2" d="M92.5,108.06a30.28,30.28,0,0,1-6.71.76A30.28,30.28,0,0,0,92.5,108.06Z"/><path class="cls-2" d="M109.74,83.06q-.08.53-.2,1.06.12-.53.2-1.06a30.79,30.79,0,0,0,.51-6.69l0-.18,0,.18A30.79,30.79,0,0,1,109.74,83.06Z"/><path class="cls-2" d="M80,108.31q1.44.24,2.89.36-1.45-.13-2.89-.36Z"/><path class="cls-2" d="M103.5,95.09h0a5.35,5.35,0,0,0,.56-.63A5.34,5.34,0,0,1,103.5,95.09Z"/><path class="cls-2" d="M109.44,72c-.07-.24-.14-.49-.2-.73a24.46,24.46,0,0,0-5-9.06,24.46,24.46,0,0,1,5,9.06C109.3,71.49,109.37,71.74,109.44,72Z"/><path class="cls-2" d="M58.57,92.3A30.7,30.7,0,0,0,68,103.21,30.7,30.7,0,0,1,58.57,92.3Z"/><path class="cls-2" d="M129.43,101.3A24.48,24.48,0,0,0,144,87.13,24.48,24.48,0,0,1,129.43,101.3Z"/><path class="cls-2" d="M242.87,158.3c-15.25-33.8-22.65-56.42-7.78-92.93l8.21-16L62.6,229.82c25.21,8.61,52.33,5.14,75.63,20.14l1.45,1,4-2.76c24.08-13.48,50.51-10.29,75.63-19.36l3.34-1.45,3.13-1.74C249.77,210.29,253.33,182.73,242.87,158.3Zm-33.69,54-10.82-39.81-17.43,32.06-17.36-32.2-10.82,39.8h-5.81l14.45-60.33L181,188.19,200.54,152,215,212.35Z"/><path class="cls-2" d="M127,48.22a30.24,30.24,0,0,0-5.74-.58v0a30.35,30.35,0,0,0-12.1,2.47v0a34,34,0,0,0-5.68,3.16,34,34,0,0,0-5.74-3.18v0a30.3,30.3,0,0,0-12-2.47,31.2,31.2,0,0,0-5.81.59h0a30.61,30.61,0,0,0,0,60.11v0a38.57,38.57,0,0,0,5.81.5,30.3,30.3,0,0,0,12-2.47h0a34,34,0,0,0,5.73-3.19,33.91,33.91,0,0,0,5.68,3.16v.05a30.35,30.35,0,0,0,12.1,2.47,37.59,37.59,0,0,0,5.74-.5,30.63,30.63,0,0,0,0-60.11ZM97.77,99.53h0a24,24,0,0,1-12,3.19A25.38,25.38,0,0,1,80,102v0a24.46,24.46,0,0,1,0-47.57,25.39,25.39,0,0,1,5.8-.65,24,24,0,0,1,12,3.12c.35.22.64.33,1,.55a10.8,10.8,0,0,0-1,1.16,30.42,30.42,0,0,0-7.12,19.58,30.74,30.74,0,0,0,7.12,19.65h0a13.48,13.48,0,0,0,1,1.09A7.3,7.3,0,0,1,97.77,99.53Zm11.49-14.36a24.77,24.77,0,0,1-1.87,4.52,23.58,23.58,0,0,1-1.77,2.85c-.16.23-2.08,2.59-2.12,2.55a24.38,24.38,0,0,1,0-33.7,24.45,24.45,0,0,1,5.73,9.86c.11.41.24.85.33,1.21s.21.86.3,1.3a18.71,18.71,0,0,1,.37,2.62,30.79,30.79,0,0,1-.51,6.69A17,17,0,0,1,109.26,85.17Zm12-31.37A24.46,24.46,0,0,1,127,102a25.22,25.22,0,0,1-5.74.73,24.12,24.12,0,0,1-12.05-3.17v0a6.63,6.63,0,0,1-.94-.58c.29-.36.65-.73.94-1.09a30.34,30.34,0,0,0,7.12-19.65,30,30,0,0,0-7.11-19.56c-.32-.43-.65-.82-.94-1.18a9.87,9.87,0,0,1,2.81-1.33c1.52-.55,3-1.06,4.61-1.47a25.58,25.58,0,0,1,4.76-.83Z"/></g></g></g></svg>