<svg id="Layer_1" data-name="Layer 1" xmlns="http://www.w3.org/2000/svg" xmlns:xlink="http://www.w3.org/1999/xlink" viewBox="0 0 2509.08 856"><defs><style>.cls-1{fill:#1d1d1b;stroke:#fff;stroke-miterlimit:10;stroke-width:10px;}.cls-2{fill:#fff;}.cls-3{fill:url(#Degradado_sin_nombre_10);}.cls-4{fill:url(#Degradado_sin_nombre_9);}.cls-5{fill:url(#Degradado_sin_nombre_8);}.cls-6{fill:url(#Degradado_sin_nombre_7);}</style><linearGradient id="Degradado_sin_nombre_10" x1="786.8" y1="-900.55" x2="831.21" y2="-900.55" gradientTransform="matrix(5.35, 0, 0, -5.35, -4130.2, -4429.73)" gradientUnits="userSpaceOnUse"><stop offset="0" stop-color="#63be6b"/><stop offset="0.51" stop-color="#5bbc6a"/><stop offset="1" stop-color="#4ab96a"/></linearGradient><linearGradient id="Degradado_sin_nombre_9" x1="786.84" y1="-919.44" x2="817.34" y2="-919.44" gradientTransform="matrix(5.35, 0, 0, -5.35, -4130.2, -4429.73)" gradientUnits="userSpaceOnUse"><stop offset="0" stop-color="#3ec6f2"/><stop offset="1" stop-color="#45afe3"/></linearGradient><linearGradient id="Degradado_sin_nombre_8" x1="817.31" y1="-920.47" x2="856.03" y2="-920.47" gradientTransform="matrix(5.35, 0, 0, -5.35, -4130.2, -4429.73)" gradientUnits="userSpaceOnUse"><stop offset="0" stop-color="#faa51a"/><stop offset="0.39" stop-color="#fab716"/><stop offset="0.74" stop-color="#fac412"/><stop offset="1" stop-color="#fac80f"/></linearGradient><linearGradient id="Degradado_sin_nombre_7" x1="787.09" y1="-940.17" x2="833" y2="-940.17" gradientTransform="matrix(5.35, 0, 0, -5.35, -4130.2, -4429.73)" gradientUnits="userSpaceOnUse"><stop offset="0" stop-color="#ec3b50"/><stop offset="1" stop-color="#e7515b"/></linearGradient></defs><title>play_black</title><path id="background" class="cls-1" d="M106.52,5h2296a101.59,101.59,0,0,1,101.52,101.52v643A101.59,101.59,0,0,1,2402.56,851h-2296A101.59,101.59,0,0,1,5,749.48v-643A101.59,101.59,0,0,1,106.52,5Z"/><path id="Fill-1" class="cls-2" d="M1716.63,595.34l-18.78,17.76c-4.4,2.37-8.63,5.25-12.86,7.11-13,5.92-26.23,7.45-38.07,7.45-12.52,0-32.15-.85-52.12-15.4-27.75-19.63-39.93-53.64-39.93-83.08,0-61.08,49.41-91,89.85-91,14,0,28.59,3.56,40.27,11,19.62,13,24.7,30,27.41,39.09l-92.05,37.39L1590.23,528c9.82,50.08,43.49,79.18,80.71,79.18,18.62,0,32.32-6.09,45-12.35,0,0,2.54-1.35.68.51Zm-56.18-100.51c7.45-2.7,11.17-5.07,11.17-10.66,0-15.9-17.43-34.17-38.41-34.17-15.4,0-44.5,12.35-44.5,55.16,0,6.76.85,13.87,1.19,21Z"/><path id="Fill-2" class="cls-2" d="M1524.42,593.14c0,15.23,2.7,17.6,15.56,18.78,6.77.85,13.37,1.18,20,1.86l-14.38,8.63H1476.7c9-11.84,10.66-13,10.66-20.81v-8.8l-.17-233.5h-30.45L1486,345.09h55.83c-12.18,7.11-15.73,11.34-17.25,25l-.17,223"/><path id="Fill-3" class="cls-2" d="M1417.65,457.44c9,7.45,27.58,23.18,27.58,53,0,29.1-16.24,42.81-32.66,55.84-5.07,5.07-11,10.66-11,19.29s5.92,13.36,10.15,16.92l14,11c17.09,14.55,32.66,27.92,32.66,55,0,36.89-35.53,74.28-102.54,74.28-56.51,0-83.75-27.07-83.75-56.17,0-14.22,6.94-34.18,30.12-47.89,24.19-14.89,56.85-16.92,74.44-18.1-5.41-7.11-11.67-14.55-11.67-26.73,0-6.6,2-10.66,3.89-15.4-4.23.34-8.63.84-12.52.84-41.28,0-64.63-31.13-64.63-61.75,0-18.11,8.12-38.07,25-52.62,22.16-18.45,48.73-21.66,69.71-21.66h80.37l-25,14.21Zm-27.41,174.11a49.08,49.08,0,0,0-9-.51c-3.55,0-24.87.85-41.28,6.43-8.63,3.21-33.84,12.86-33.84,41.28s27.07,48.9,69.2,48.9c37.73,0,57.7-18.44,57.7-43.14,0-20.65-13-31.47-42.81-53Zm11-75.8c9-9,9.81-21.49,9.81-28.6,0-28.26-16.58-72.08-48.9-72.08-10,0-21,5.08-27.24,13-6.6,8.12-8.46,18.78-8.46,28.93,0,26.23,15.23,69.71,48.56,69.71A39,39,0,0,0,1401.24,555.75Z"/><path id="Fill-4" class="cls-2" d="M1174.68,627.66c-62.1,0-95.26-49.07-95.26-93.4,0-51.78,41.79-96.11,101.18-96.11,57.36,0,93.4,45.52,93.4,93.4C1274,578.25,1238.47,627.66,1174.68,627.66Zm48.56-32c9.48-12.69,11.84-28.6,11.84-44,0-35-16.41-101.69-65.14-101.69a54.14,54.14,0,0,0-35.36,13.53c-15.23,13.88-18.11,31.3-18.11,48.39,0,39.26,19.12,103.89,66.67,103.89C1198.71,615.81,1214.27,608.37,1223.24,595.68Z"/><path id="Fill-5" class="cls-2" d="M966.56,627.66c-62.09,0-95.26-49.07-95.26-93.4,0-51.78,41.8-96.11,101.19-96.11,57.35,0,93.39,45.52,93.39,93.4C1065.88,578.25,1030.35,627.66,966.56,627.66Zm48.56-32c9.48-12.69,11.85-28.6,11.85-44,0-35-16.58-101.69-65.14-101.69a53.85,53.85,0,0,0-35.37,13.53c-15.39,13.88-18.1,31.3-18.1,48.39,0,39.26,19.29,103.89,66.66,103.89,15.57,0,31.14-7.44,40.1-20.13Z"/><path id="Fill-6" class="cls-2" d="M845.59,616,793,628.16c-21.31,3.39-40.43,6.43-60.74,6.43-101.52-.17-140.1-75.29-140.1-134.17,0-71.74,54.82-138.41,148.56-138.41A208.78,208.78,0,0,1,797,369.8c27.57,7.78,40.43,17.42,48.56,23L815,422.08,802.1,425l9.14-14.72c-12.52-12.18-35.36-34.85-78.68-34.85-58,0-101.86,44.33-101.86,109.13,0,69.54,49.92,135,130.12,135,23.52,0,35.7-4.73,46.7-9.13V550.67L752,553.72l29.44-15.91h78L850,547.12c-2.53,2.2-2.87,2.87-3.72,5.92-.34,3.38-.67,14-.67,17.93v45"/><path id="Fill-7" class="cls-2" d="M1830.16,597V697h-19.8V442.72h19.8v28.93a78.49,78.49,0,0,1,63.79-33.5c49.07,0,82.23,37.4,82.23,96.45,0,58.71-33,96.78-82.23,96.78C1868.23,631.38,1845.05,618,1830.16,597Zm125.72-60.91c0-45-23.18-79.36-64.47-79.36-25.55,0-50.08,20.31-60.74,38.07v82.24c10.66,17.76,35.19,38.74,60.74,38.74,41.29,0,64.47-34.68,64.47-79.69Z"/><path id="Fill-8" class="cls-2" d="M2003.25,372.16h20.31v255.5h-20.31Z"/><path id="Fill-9" class="cls-2" d="M2244.36,679.43c4.23,1.86,11.51,3.05,16.08,3.05,12.18,0,20.47-4.91,28.08-22.51l14.39-32.82-78-185.61h22.17l66.83,160.91,66.33-160.91h22.33l-95.09,224.52c-9.81,23.18-25.38,34.35-46.7,34.35A77.31,77.31,0,0,1,2241,697.7l3.38-18.27"/><path id="Fill-10" class="cls-2" d="M2188.36,627.49q-2-9.65-3.05-16.75a100.62,100.62,0,0,1-1-14.39c-6.77,10-16.42,18.45-28.94,25-12.35,6.59-24.19,9.81-40.27,9.81-19.45,0-34.51-4.74-45.17-14.55-10.66-9.65-16.08-22.84-16.08-39.43s7.79-30.11,23.35-40.43,35.7-15.57,60.58-15.57h46.36v-23c0-13.2-4.57-23.69-13.54-31.13-9-7.62-21.66-11.34-38.07-11.34-15.06,0-27.24,3.55-36.55,10.32-9.13,6.94-13.87,15.57-13.87,25.89h-20.3l-.34-1c-.68-14,5.58-26.22,19.29-36.88,13.53-10.66,31.13-15.91,53-15.91,21.65,0,39.25,5.25,52.45,15.74,13.19,10.32,19.79,25.38,19.79,44.84v91.36a140.84,140.84,0,0,0,1.19,19.12,129.52,129.52,0,0,0,3.89,18.28Zm-70.73-13.37c16.92,0,29.1-3.89,41.46-11.34s20.64-17.25,25-29.1V538h-46.7c-17.77,0-32.49,3.89-44.16,12-11.68,8-17.43,17.6-17.43,28.94,0,10.66,3.72,19.12,11.17,25.55C2094.62,610.91,2104.77,614.12,2117.63,614.12Z"/><path class="cls-2" d="M580.21,234.22V148.91H608A44.17,44.17,0,0,1,629.26,154a36.33,36.33,0,0,1,14.66,14.42,42.51,42.51,0,0,1,5.26,21.24v3.92A42.66,42.66,0,0,1,644,214.71a36,36,0,0,1-14.59,14.35,44.42,44.42,0,0,1-21.26,5.16Zm18.59-71.08v57h9q10.9,0,16.67-6.74t5.89-19.28v-4.51q0-13-5.7-19.72T608,163.14Z"/><path class="cls-2" d="M688.81,234.22H670.22V148.91h18.59Z"/><path class="cls-2" d="M759.17,211.84a8.85,8.85,0,0,0-3.72-7.65q-3.72-2.67-13.39-5.63a96.93,96.93,0,0,1-15.3-5.83q-15.37-7.84-15.37-21.15a19.81,19.81,0,0,1,4.12-12.33,26.72,26.72,0,0,1,11.83-8.47,46.87,46.87,0,0,1,17.32-3.05A42.67,42.67,0,0,1,761.89,151a27.09,27.09,0,0,1,11.74,9.35,23.47,23.47,0,0,1,4.19,13.71H759.23q0-5.85-3.91-9.11t-11-3.25q-6.81,0-10.59,2.72a8.45,8.45,0,0,0-3.78,7.18c0,2.77,1.48,5.1,4.43,7s7.3,3.64,13,5.28q15.87,4.5,23.12,11.19a21.7,21.7,0,0,1,7.25,16.64A20.17,20.17,0,0,1,769,229.09q-8.87,6.3-23.86,6.3a48.39,48.39,0,0,1-19-3.6,29.87,29.87,0,0,1-13-9.88,24.33,24.33,0,0,1-4.49-14.53h18.65q0,14.13,17.85,14.12,6.63,0,10.35-2.55A8.13,8.13,0,0,0,759.17,211.84Z"/><path class="cls-2" d="M815.33,204.16v30.06H796.74V148.91h35.2a42.83,42.83,0,0,1,17.88,3.51,27,27,0,0,1,11.86,10,26.71,26.71,0,0,1,4.16,14.74q0,12.54-9.08,19.77t-25.13,7.24Zm0-14.24h16.61c4.92,0,8.66-1.09,11.25-3.28s3.87-5.31,3.87-9.37a13.65,13.65,0,0,0-3.9-10.14q-3.92-3.87-10.79-4h-17Z"/><path class="cls-2" d="M959.06,193.5a49.14,49.14,0,0,1-4.71,22.09,34.15,34.15,0,0,1-13.48,14.64,41.79,41.79,0,0,1-40.12.06,34.53,34.53,0,0,1-13.63-14.56,47.62,47.62,0,0,1-4.9-21.77v-4.21a48.87,48.87,0,0,1,4.8-22.18,34.5,34.5,0,0,1,13.57-14.71,41.75,41.75,0,0,1,40.1,0,34.5,34.5,0,0,1,13.57,14.71,48.73,48.73,0,0,1,4.8,22.12Zm-18.84-3.87q0-13.42-5.08-20.39t-14.5-7q-9.36,0-14.44,6.88t-5.14,20.19v4.16q0,13.06,5.08,20.27T920.76,221q9.36,0,14.38-6.95t5.08-20.24Z"/><path class="cls-2" d="M1052.29,234.22H1033.7l-36.19-56.13v56.13H978.92V148.91h18.59l36.25,56.25V148.91h18.53Z"/><path class="cls-2" d="M1094.63,234.22H1076V148.91h18.59Z"/><path class="cls-2" d="M1118.21,234.22V148.91h31.6q16.43,0,24.91,5.94t8.49,17.43a18.55,18.55,0,0,1-3.41,11.05,19.53,19.53,0,0,1-9.48,7,19.23,19.23,0,0,1,10.94,6.62,18.9,18.9,0,0,1,4,12.19q0,12.3-8.31,18.63t-23.67,6.45Zm18.59-49.57h13.75q14.07-.24,14.07-10.61c0-3.86-1.19-6.65-3.56-8.35s-6.13-2.55-11.25-2.55h-13Zm0,12.42v23h15.92q6.57,0,10.26-3a9.9,9.9,0,0,0,3.69-8.18q0-11.72-12.83-11.89Z"/><path class="cls-2" d="M1224.13,220.1h39.48v14.12h-58.07V148.91h18.59Z"/><path class="cls-2" d="M1334.9,197.25h-35.7V220.1h41.89v14.12h-60.48V148.91H1341v14.23H1299.2v20.34h35.7Z"/><path class="cls-2" d="M1450.58,197.25h-35.7V220.1h41.89v14.12h-60.48V148.91h60.36v14.23h-41.77v20.34h35.7Z"/><path class="cls-2" d="M1547.4,234.22h-18.59l-36.19-56.13v56.13H1474V148.91h18.59l36.25,56.25V148.91h18.53Z"/><path class="cls-3" d="M320.46,419.74,96.32,291.63a9.18,9.18,0,0,0-13.63,7.91s.1,11.81.19,31.25L246.14,494.06Z"/><path class="cls-4" d="M82.88,330.79C83.15,400.93,84,571.19,84.33,656l161.9-161.9Z"/><path class="cls-5" d="M448.74,493.06,320.46,419.74l-74.41,74.32L330,578l118.83-69.23a9.07,9.07,0,0,0,4.55-7.81A9.19,9.19,0,0,0,448.74,493.06Z"/><path class="cls-6" d="M84.24,656c.18,30.25.27,49.6.27,49.6a8.89,8.89,0,0,0,4.54,7.82,9.06,9.06,0,0,0,9.09,0l232-135.29-83.95-83.94Z"/></svg>