<svg id="Layer_1" data-name="Layer 1" xmlns="http://www.w3.org/2000/svg" viewBox="0 0 2509.08 856"><defs><style>.cls-1{fill:#1d1d1b;stroke:#fff;stroke-miterlimit:10;stroke-width:10px;}.cls-2{fill:#fff;}</style></defs><title>btn_store_black</title><path id="background" class="cls-1" d="M106.52,5h2296a101.59,101.59,0,0,1,101.52,101.52v643A101.59,101.59,0,0,1,2402.56,851h-2296A101.59,101.59,0,0,1,5,749.48v-643A101.59,101.59,0,0,1,106.52,5Z"/><path class="cls-2" d="M492.68,421.75C492,349,552.22,313.65,555,312c-34.09-49.7-86.93-56.49-105.5-57-44.38-4.67-87.43,26.56-110,26.56-23.06,0-57.88-26.11-95.4-25.34-48.28.75-93.46,28.7-118.23,72.11-51.13,88.52-13,218.59,36,290.14,24.5,35.07,53.13,74.17,90.61,72.79,36.67-1.49,50.36-23.35,94.61-23.35,43.84,0,56.7,23.35,94.92,22.47,39.35-.61,64.13-35.2,87.77-70.55C558,579.65,569.39,540.07,569.84,538,568.94,537.72,493.44,508.89,492.68,421.75Z"/><path class="cls-2" d="M420.47,207.9c19.72-24.66,33.22-58.22,29.47-92.26-28.54,1.26-64.24,19.74-84.79,43.86-18.19,21.25-34.43,56.09-30.24,88.85C367,250.74,399.9,232.17,420.47,207.9Z"/><path class="cls-2" d="M875.91,686.19H824.67L796.6,598H699l-26.74,88.2H622.41l96.68-300.27H778.8ZM788.14,561l-25.39-78.41q-4-12-15.14-56.57h-.9q-4.47,19.17-14.26,56.57L707.5,561Z"/><path class="cls-2" d="M1124.06,575.27q0,55.23-30,87.3-26.88,28.53-66.74,28.52-43,0-61.83-30.71V774h-48.1V540.84q0-34.69-1.78-71.17h42.3L960.59,504h.9q24.06-38.78,73.06-38.78,38.31,0,63.92,30.28T1124.06,575.27Zm-49,1.76q0-31.6-14.26-52.14-15.6-21.36-41.88-21.37c-11.87,0-22.65,4-32.29,11.8a54.81,54.81,0,0,0-18.93,31,62.71,62.71,0,0,0-2.23,14.64v36.13q0,23.58,14.49,39.89t37.63,16.26q27.18,0,42.31-20.93T1075.05,577Z"/><path class="cls-2" d="M1373.08,575.27q0,55.23-30,87.3-26.91,28.53-66.77,28.52-43,0-61.82-30.71V774h-48.11V540.84q0-34.69-1.78-71.17h42.31l2.68,34.32h.91q24-38.78,73-38.78,38.28,0,64,30.28Q1373,525.85,1373.08,575.27Zm-49,1.76q0-31.6-14.29-52.14-15.6-21.36-41.83-21.37c-11.87,0-22.65,4-32.33,11.8s-15.95,18.21-18.91,31a64.09,64.09,0,0,0-2.26,14.64v36.13c0,15.72,4.86,29,14.47,39.89s22.2,16.26,37.68,16.26q27.21,0,42.3-20.93T1324.06,577Z"/><path class="cls-2" d="M1651.51,602q0,38.35-26.69,62.39-29.31,26.26-81.79,26.28-48.46,0-77.75-18.7l11.12-40.1q31.65,18.75,69.5,18.73,27.21,0,42.3-12.25c10.09-8.17,15.19-19.09,15.19-32.72,0-12.2-4.22-22.42-12.5-30.75s-22.09-16-41.43-23.15q-78.86-29.41-78.88-86,0-37,27.84-60.58t73.74-23.63c27.32,0,50.09,4.77,68.16,14.26L1628.25,435q-25.51-13.81-57.69-13.81c-17,0-30.28,4.17-39.8,12.48-8,7.42-12.08,16.47-12.08,27.21,0,11.84,4.63,21.68,13.84,29.4q12,10.66,43.63,23.15,38.79,15.63,57,36.51C1645.42,563.83,1651.51,581.23,1651.51,602Z"/><path class="cls-2" d="M1811,505.77h-53V610.9q0,40.1,28.07,40.07c8.6,0,15.73-.72,21.37-2.24l1.33,36.53q-14.22,5.32-37.41,5.33-28.5,0-44.56-17.4t-16-58.37V505.68h-31.59v-36.1h31.59V429.94l47.24-14.26v53.9h53v36.19Z"/><path class="cls-2" d="M2049.73,576.15q0,49.92-28.52,82-29.82,33-79.29,33-47.72,0-76-31.59t-28.29-79.74q0-50.32,29.17-82.4t78.66-32.09q47.65,0,76.6,31.64Q2049.78,527.57,2049.73,576.15Zm-49.87,1.1q0-29.75-12.88-51.08-15.12-25.78-43.23-25.79c-19.27,0-34,8.6-44.11,25.79q-12.93,21.36-12.91,52,0,29.77,12.91,51.1c10.4,17.2,24.91,25.79,43.7,25.79q27.59,0,43.23-26.22C1995.42,614.26,1999.86,597.13,1999.86,577.25Z"/><path class="cls-2" d="M2206.16,512a83.69,83.69,0,0,0-15.16-1.33c-16.93,0-30,6.36-39.22,19.18q-12,16.92-12,42.75V686.19h-48.11V537.86q0-37.4-1.39-68.16h41.89l1.76,41.42h1.34c5.1-14.24,13.08-25.72,24.05-34.32q16.08-11.61,34.77-11.59a76.43,76.43,0,0,1,12,.88l0,45.89Z"/><path class="cls-2" d="M2421.3,567.69a113.35,113.35,0,0,1-1.76,21.82H2275.22q.83,32.09,20.94,49,18.24,15.09,47.21,15.12,32,0,58.39-10.23l7.53,33.38q-30.72,13.39-72.58,13.38-50.36,0-79.11-29.61t-28.72-79.51q0-48.95,26.76-81.5,28-34.72,75.7-34.72,46.8,0,70.87,34.72Q2421.26,527.12,2421.3,567.69Zm-45.87-12.48c.34-14.28-2.82-26.58-9.34-37-8.33-13.4-21.15-20.08-38.32-20.08-15.72,0-28.54,6.52-38.29,19.61-8,10.4-12.77,22.9-14.23,37.41l100.18,0Z"/><path class="cls-2" d="M644.76,279.94V194.63h27.76a44,44,0,0,1,21.28,5.07,36.31,36.31,0,0,1,14.66,14.41,42.52,42.52,0,0,1,5.27,21.24v3.93a42.6,42.6,0,0,1-5.18,21.15A36,36,0,0,1,694,274.79a44.53,44.53,0,0,1-21.26,5.15Zm18.59-71.07v56.95h9q10.9,0,16.67-6.74t5.89-19.28v-4.51q0-13-5.7-19.71t-16.67-6.71Z"/><path class="cls-2" d="M753.35,279.94H734.76V194.63h18.59Z"/><path class="cls-2" d="M823.71,257.56a8.85,8.85,0,0,0-3.72-7.65q-3.72-2.67-13.39-5.62a99.35,99.35,0,0,1-15.3-5.83q-15.37-7.86-15.37-21.16A19.83,19.83,0,0,1,780.05,205a26.85,26.85,0,0,1,11.84-8.47,46.8,46.8,0,0,1,17.32-3,42.49,42.49,0,0,1,17.22,3.31,27.09,27.09,0,0,1,11.75,9.34,23.51,23.51,0,0,1,4.18,13.71H823.77q0-5.85-3.9-9.11t-11-3.25q-6.82,0-10.6,2.73a8.42,8.42,0,0,0-3.78,7.17c0,2.78,1.48,5.1,4.43,7s7.3,3.63,13,5.27q15.86,4.51,23.11,11.19a21.7,21.7,0,0,1,7.25,16.64,20.13,20.13,0,0,1-8.86,17.37q-8.87,6.3-23.86,6.3a48.39,48.39,0,0,1-19-3.6,29.78,29.78,0,0,1-13-9.87,24.35,24.35,0,0,1-4.49-14.53h18.65q0,14.11,17.85,14.12,6.63,0,10.35-2.55A8.15,8.15,0,0,0,823.71,257.56Z"/><path class="cls-2" d="M879.87,249.88v30.06H861.28V194.63h35.2a42.76,42.76,0,0,1,17.88,3.51,27.07,27.07,0,0,1,11.87,10,26.79,26.79,0,0,1,4.15,14.74q0,12.54-9.08,19.78t-25.13,7.23Zm0-14.24h16.61q7.38,0,11.25-3.28T911.6,223a13.65,13.65,0,0,0-3.9-10.14q-3.9-3.87-10.78-4h-17Z"/><path class="cls-2" d="M1023.6,239.22q0,12.6-4.71,22.09A34.21,34.21,0,0,1,1005.42,276a41.88,41.88,0,0,1-40.13.06,34.58,34.58,0,0,1-13.63-14.56,47.78,47.78,0,0,1-4.9-21.77v-4.22a48.77,48.77,0,0,1,4.81-22.18,34.44,34.44,0,0,1,13.57-14.71,41.8,41.8,0,0,1,40.09,0,34.5,34.5,0,0,1,13.57,14.71,48.76,48.76,0,0,1,4.8,22.12Zm-18.84-3.87q0-13.41-5.08-20.39t-14.5-7q-9.36,0-14.44,6.88t-5.14,20.19v4.16q0,13.07,5.08,20.27t14.63,7.21q9.35,0,14.37-6.94t5.08-20.25Z"/><path class="cls-2" d="M1116.83,279.94h-18.59l-36.19-56.13v56.13h-18.59V194.63h18.59l36.25,56.25V194.63h18.53Z"/><path class="cls-2" d="M1159.18,279.94h-18.59V194.63h18.59Z"/><path class="cls-2" d="M1182.75,279.94V194.63h31.6q16.43,0,24.91,6t8.49,17.43a18.45,18.45,0,0,1-3.41,11,19.47,19.47,0,0,1-9.48,7,19.21,19.21,0,0,1,10.94,6.63,18.81,18.81,0,0,1,4,12.18q0,12.31-8.31,18.64t-23.67,6.44Zm18.59-49.57h13.76q14.06-.24,14.06-10.6,0-5.81-3.56-8.35t-11.25-2.55h-13Zm0,12.42v23h15.92q6.57,0,10.26-3a9.9,9.9,0,0,0,3.69-8.17q0-11.72-12.83-11.9Z"/><path class="cls-2" d="M1288.68,265.82h39.47v14.12h-58.06V194.63h18.59Z"/><path class="cls-2" d="M1399.44,243h-35.69v22.85h41.88v14.12h-60.48V194.63h60.36v14.24h-41.76V229.2h35.69Z"/><path class="cls-2" d="M1515.12,243h-35.69v22.85h41.89v14.12h-60.48V194.63h60.35v14.24h-41.76V229.2h35.69Z"/><path class="cls-2" d="M1611.94,279.94h-18.59l-36.19-56.13v56.13h-18.59V194.63h18.59l36.25,56.25V194.63h18.53Z"/></svg>