<svg xmlns="http://www.w3.org/2000/svg" xmlns:xlink="http://www.w3.org/1999/xlink" viewBox="0 0 304.03 99.45"><defs><style>.cls-1{fill:none;}.cls-2{fill:#f3f3f3;}.cls-3{clip-path:url(#clip-path);}.cls-4{fill:url(#linear-gradient);}.cls-5{fill:url(#linear-gradient-2);}.cls-6{fill:url(#linear-gradient-3);}.cls-7{fill:url(#linear-gradient-4);}.cls-8{fill:#515151;}.cls-9{fill:#060606;}</style><clipPath id="clip-path"><path class="cls-1" d="M65.89,43.78,52.18,35.86,25.74,20.59c-1.47-.84-2.94-.33-2.94,1.44V84.24c0,1.32,1.05,1.9,2.33,1.16L52.18,69.78l13.71-7.91,13.17-7.61c1.55-.9,1.4-2.12.1-2.82S65.89,43.78,65.89,43.78Z"/></clipPath><linearGradient id="linear-gradient" x1="39.79" y1="19.15" x2="39.79" y2="86.5" gradientUnits="userSpaceOnUse"><stop offset="0" stop-color="#507aab"/><stop offset="0.11" stop-color="#5b84ad"/><stop offset="0.71" stop-color="#92b7b9"/><stop offset="1" stop-color="#a8cbbd"/></linearGradient><linearGradient id="linear-gradient-2" x1="22.8" y1="35.86" x2="65.89" y2="35.86" gradientUnits="userSpaceOnUse"><stop offset="0" stop-color="#83b8a8"/><stop offset="1" stop-color="#e6e99d"/></linearGradient><linearGradient id="linear-gradient-3" x1="44.35" y1="52.82" x2="44.35" y2="86.74" gradientUnits="userSpaceOnUse"><stop offset="0" stop-color="#c44739"/><stop offset="0.12" stop-color="#ba4845"/><stop offset="0.71" stop-color="#8e4c7c"/><stop offset="1" stop-color="#7d4e92"/></linearGradient><linearGradient id="linear-gradient-4" x1="69.16" y1="43.78" x2="69.16" y2="61.87" gradientUnits="userSpaceOnUse"><stop offset="0" stop-color="#d68c7b"/><stop offset="0.62" stop-color="#e5b67a"/><stop offset="1" stop-color="#edcc7a"/></linearGradient></defs><title>btn_googleplay</title><g id="Capa_2" data-name="Capa 2"><g id="Capa_1-2" data-name="Capa 1"><rect class="cls-2" width="304.03" height="99.45" rx="13.44" ry="13.44"/><g id="PLAY"><g class="cls-3"><polygon class="cls-4" points="22.8 19.15 22.8 52.82 22.8 86.5 56.77 52.82 22.8 19.15"/><polygon class="cls-5" points="65.89 43.78 52.18 35.86 22.8 18.9 22.8 19.15 56.77 52.82 65.89 43.78"/><polygon class="cls-6" points="22.8 86.5 22.8 86.74 52.18 69.78 65.89 61.87 56.77 52.82 22.8 86.5"/><polygon class="cls-7" points="65.89 43.78 56.77 52.82 65.89 61.87 81.55 52.82 65.89 43.78"/></g></g><path class="cls-8" d="M236.61,72.79a8.47,8.47,0,0,1-3.49-.71,6.55,6.55,0,0,1-2.66-2.17h-.21a26.79,26.79,0,0,1,.21,3.25v8.06h-3V52.84h2.41l.41,2.68h.14a7,7,0,0,1,2.67-2.32,8,8,0,0,1,3.48-.71,7.21,7.21,0,0,1,6,2.66c1.42,1.77,2.12,4.26,2.12,7.47s-.72,5.71-2.15,7.5A7.26,7.26,0,0,1,236.61,72.79ZM236.18,55a5.24,5.24,0,0,0-4.34,1.66q-1.34,1.66-1.38,5.29v.66q0,4.13,1.38,5.91a5.25,5.25,0,0,0,4.41,1.77,4.58,4.58,0,0,0,4-2,9.75,9.75,0,0,0,1.44-5.67A9.39,9.39,0,0,0,240.23,57,4.74,4.74,0,0,0,236.18,55Z"/><path class="cls-8" d="M251.61,72.43h-3V44.62h3Z"/><path class="cls-8" d="M268.67,72.43l-.59-2.79h-.15A8.1,8.1,0,0,1,265,72.13a8.81,8.81,0,0,1-3.64.66,6.53,6.53,0,0,1-4.56-1.5A5.49,5.49,0,0,1,255.16,67q0-5.94,9.48-6.22l3.33-.11V59.47a5,5,0,0,0-1-3.4,4.09,4.09,0,0,0-3.17-1.1,12.9,12.9,0,0,0-5.54,1.5l-.92-2.27A14.39,14.39,0,0,1,260.53,53a13.62,13.62,0,0,1,3.45-.45q3.51,0,5.2,1.56c1.12,1,1.68,2.7,1.68,5V72.43ZM262,70.34a6,6,0,0,0,4.35-1.52,5.63,5.63,0,0,0,1.58-4.25V62.8l-3,.12a10.84,10.84,0,0,0-5.1,1.1,3.32,3.32,0,0,0-1.56,3,3.06,3.06,0,0,0,1,2.45A4.05,4.05,0,0,0,262,70.34Z"/><path class="cls-8" d="M272.59,52.84h3.18L280.06,64a42.83,42.83,0,0,1,1.75,5.53H282c.16-.61.48-1.65,1-3.12s2.12-6,4.86-13.58H291l-8.42,22.31a11.19,11.19,0,0,1-2.92,4.69,6.24,6.24,0,0,1-4.1,1.38,12,12,0,0,1-2.68-.3V78.54a9.78,9.78,0,0,0,2.19.22c2,0,3.49-1.15,4.36-3.43l1.09-2.79Z"/><path class="cls-8" d="M181.66,54.66a6.92,6.92,0,0,1,2.91,5.53c0,3-1.72,4.47-3.45,5.82A2.89,2.89,0,0,0,180,68,2.25,2.25,0,0,0,181,69.78l1.48,1.15c1.8,1.51,3.44,2.91,3.44,5.73,0,3.85-3.73,7.75-10.77,7.75-5.95,0-8.81-2.83-8.81-5.86a5.88,5.88,0,0,1,3.15-5c2.54-1.56,6-1.76,7.83-1.89a4.24,4.24,0,0,1-1.23-2.78,3.59,3.59,0,0,1,.41-1.6c-.46,0-.91.08-1.32.08a6.47,6.47,0,0,1-6.8-6.43,7.4,7.4,0,0,1,2.63-5.49,11.18,11.18,0,0,1,7.33-2.25h8.44l-2.62,1.47Zm-2.91,18.19a6.79,6.79,0,0,0-.94,0,16.12,16.12,0,0,0-4.3.66c-.91.32-3.53,1.31-3.53,4.22s2.83,5,7.21,5c3.93,0,6-1.89,6-4.43C183.22,76.17,181.86,75.07,178.75,72.85Zm1.19-7.78a4.14,4.14,0,0,0,1-3c0-2.95-1.76-7.54-5.16-7.54a3.83,3.83,0,0,0-2.87,1.35,4.77,4.77,0,0,0-.9,3c0,2.75,1.6,7.3,5.12,7.3A4.18,4.18,0,0,0,179.94,65.07Z"/><path class="cls-8" d="M155.87,72.2a9.65,9.65,0,0,1-10-9.66c0-5.35,4.37-9.93,10.59-9.93a9.57,9.57,0,0,1,9.78,9.65A10,10,0,0,1,155.87,72.2ZM161,68.89a7.44,7.44,0,0,0,1.23-4.55c0-3.6-1.72-10.47-6.79-10.47a5.7,5.7,0,0,0-3.68,1.4,6.18,6.18,0,0,0-1.89,5c0,4,2,10.71,7,10.71A5.25,5.25,0,0,0,161,68.89Z"/><path class="cls-8" d="M133.7,72.2a9.65,9.65,0,0,1-10-9.66c0-5.35,4.38-9.93,10.59-9.93a9.57,9.57,0,0,1,9.78,9.65A10,10,0,0,1,133.7,72.2Zm5.11-3.31A7.44,7.44,0,0,0,140,64.34c0-3.6-1.72-10.47-6.79-10.47a5.7,5.7,0,0,0-3.68,1.4,6.17,6.17,0,0,0-1.88,5c0,4,2,10.71,6.95,10.71A5.24,5.24,0,0,0,138.81,68.89Z"/><path class="cls-8" d="M120.59,71.56l-5.88,1.35a42.41,42.41,0,0,1-6.78.7c-11.35,0-15.67-8.35-15.67-14.89,0-8,6.13-15.37,16.62-15.37a24,24,0,0,1,6.29.86,16,16,0,0,1,5.42,2.55L117.18,50l-1.44.33,1-1.65a11.78,11.78,0,0,0-8.8-3.86c-6.5,0-11.39,4.93-11.39,12.13,0,7.73,5.59,15,14.55,15a12.35,12.35,0,0,0,5.23-1V64.32l-6.21.33,3.29-1.77h8.72l-1.07,1a1,1,0,0,0-.42.65c0,.37-.08,1.57-.08,2Z"/><path class="cls-8" d="M194.65,70.37c-1.35-.12-1.64-.37-1.64-2V45.12l0-.26c.16-1.44.57-1.69,1.85-2.43H189l-3.09,1.48h3.14v0h0V69.3c0,.82-.16,1-1.11,2.18h7.28l1.52-.9C196.06,70.49,195.36,70.45,194.65,70.37Z"/><path class="cls-8" d="M211.39,70.75c-.45.25-.9.53-1.35.74a9.54,9.54,0,0,1-4,.77,8.69,8.69,0,0,1-5.43-1.59,10.57,10.57,0,0,1-4.17-8.62,9.25,9.25,0,0,1,9.35-9.43A8,8,0,0,1,210,53.76a6.81,6.81,0,0,1,2.86,4l-9.6,3.89-3.14.24c1,5.19,4.53,8.21,8.41,8.21a10.6,10.6,0,0,0,5-1.43Zm-3.84-12.17c.77-.29,1.18-.53,1.18-1.1,0-1.63-1.83-3.51-4-3.51-1.64,0-4.7,1.26-4.7,5.67,0,.7.09,1.43.13,2.17Z"/><path class="cls-8" d="M215.33,52.9v2.69H215V52.9h-.89v-.28h2.11v.28Z"/><path class="cls-8" d="M219,55.59V52.87h0l-.83,2.72h-.26l-.84-2.72h0v2.72h-.29v-3h.51L218,55h0l.75-2.4h.52v3Z"/><path class="cls-9" d="M93,12.37a23.76,23.76,0,0,1,3.73-.29,7.72,7.72,0,0,1,5.2,1.49,5.7,5.7,0,0,1,2,4.71,6.6,6.6,0,0,1-2,5.09,8.58,8.58,0,0,1-5.79,1.74A25.15,25.15,0,0,1,93,24.94Zm2.34,10.84a8.26,8.26,0,0,0,1.29.06c3,0,4.85-1.67,4.85-4.92,0-2.81-1.62-4.44-4.54-4.44a7.43,7.43,0,0,0-1.6.13Z"/><path class="cls-9" d="M108.35,12.18V25H106V12.18Z"/><path class="cls-9" d="M111,22.43a6.38,6.38,0,0,0,3.1.82c1.48,0,2.32-.7,2.32-1.75s-.65-1.53-2.26-2.12c-2.13-.74-3.48-1.88-3.48-3.71,0-2.1,1.75-3.68,4.54-3.68a6.87,6.87,0,0,1,3.06.63l-.55,1.89a5.72,5.72,0,0,0-2.57-.6c-1.48,0-2.1.78-2.1,1.54,0,1,.74,1.44,2.45,2.08,2.22.86,3.28,2,3.28,3.8,0,2.07-1.56,3.84-4.84,3.84a7.63,7.63,0,0,1-3.48-.8Z"/><path class="cls-9" d="M120.89,12.35a20.72,20.72,0,0,1,3.57-.27,5.7,5.7,0,0,1,3.76,1.05A3.61,3.61,0,0,1,129.47,16a3.89,3.89,0,0,1-1.08,2.89,5.68,5.68,0,0,1-4,1.38,5.49,5.49,0,0,1-1.14-.09V25h-2.32Zm2.32,5.94a3.68,3.68,0,0,0,1.14.12c1.74,0,2.81-.88,2.81-2.36s-1-2.16-2.6-2.16a7,7,0,0,0-1.35.11Z"/><path class="cls-9" d="M136.75,25.19c-3.63,0-5.91-2.77-5.91-6.52,0-3.91,2.49-6.7,6.1-6.7s5.93,2.83,5.93,6.48c0,4.29-2.61,6.74-6.1,6.74Zm.11-1.88c2.26,0,3.54-2.09,3.54-4.77,0-2.41-1.2-4.69-3.54-4.69s-3.55,2.22-3.55,4.77,1.29,4.69,3.54,4.69Z"/><path class="cls-9" d="M144.86,25V12.18h2.68l3.3,5.49A37,37,0,0,1,153,22l0,0a51.9,51.9,0,0,1-.21-5.3V12.18H155V25h-2.43l-3.34-5.64A43.93,43.93,0,0,1,147,14.93l-.08,0c.1,1.65.14,3.34.14,5.45V25Z"/><path class="cls-9" d="M160.06,12.18V25h-2.34V12.18Z"/><path class="cls-9" d="M162.73,12.37a19.52,19.52,0,0,1,3.42-.29,6.13,6.13,0,0,1,3.65.82,2.71,2.71,0,0,1,1.33,2.41A3,3,0,0,1,169,18.07v.05a3.24,3.24,0,0,1,2.59,3.16,3.38,3.38,0,0,1-1.22,2.64c-.91.79-2.41,1.19-4.77,1.19a22.26,22.26,0,0,1-2.87-.17Zm2.32,5.05h1.2c1.63,0,2.52-.76,2.52-1.84s-.91-1.77-2.39-1.77a6.09,6.09,0,0,0-1.33.1Zm0,5.87a7.11,7.11,0,0,0,1.24.06c1.5,0,2.85-.55,2.85-2.15s-1.31-2.09-2.93-2.09h-1.16Z"/><path class="cls-9" d="M173.68,12.18H176V23h5.26v2h-7.59Z"/><path class="cls-9" d="M190.2,19.3h-4.82v3.76h5.39V25H183V12.18h7.44V14.1h-5.1v3.3h4.82Z"/><path class="cls-9" d="M203.91,19.3h-4.82v3.76h5.39V25h-7.73V12.18h7.45V14.1h-5.11v3.3h4.82Z"/><path class="cls-9" d="M206.52,25V12.18h2.67l3.31,5.49A38.54,38.54,0,0,1,214.68,22l0,0a51.9,51.9,0,0,1-.21-5.3V12.18h2.17V25h-2.43l-3.35-5.64a46.12,46.12,0,0,1-2.28-4.41l-.07,0c.09,1.65.13,3.34.13,5.45V25Z"/></g></g></svg>