<svg xmlns="http://www.w3.org/2000/svg" viewBox="0 0 304.03 99.45"><defs><style>.cls-1{fill:#9c9c9c;}.cls-2{fill:#fff;}.cls-3{fill:#060606;}</style></defs><title>btn_appstore</title><g id="Capa_2" data-name="Capa 2"><g id="Capa_1-2" data-name="Capa 1"><rect class="cls-1" width="304.03" height="99.45" rx="13.44" ry="13.44"/><path class="cls-2" d="M52.51,17H27.74a5.37,5.37,0,0,0-5.37,5.37V77.25a5.37,5.37,0,0,0,5.37,5.37H52.51a5.37,5.37,0,0,0,5.38-5.37V22.38A5.37,5.37,0,0,0,52.51,17ZM40.13,78.68a3.58,3.58,0,1,1,3.58-3.58A3.58,3.58,0,0,1,40.13,78.68Zm13.53-8.9H26.59V29.3H53.66Z"/><path class="cls-2" d="M87.08,41.16,74.33,78.7h5.84L84,67.17H96.32l3.91,11.53h6L93.43,41.16Zm3,6.17c.43,1.68.9,3.42,1.49,5.3L95,62.58H85.25l3.39-10C89.16,50.94,89.65,49.19,90.1,47.33Z"/><path class="cls-2" d="M122.73,50.89a10.64,10.64,0,0,0-9,4.33l-.23-3.73h-5.19l0,.48c.15,2.32.21,4.88.21,8.56V89.46h5.68V76A10,10,0,0,0,122,79.29a11.74,11.74,0,0,0,8.61-3.65c2.49-2.63,3.8-6.41,3.8-10.93a15.09,15.09,0,0,0-3.3-10A10.82,10.82,0,0,0,122.73,50.89Zm-1.41,4.7c5.06,0,7.33,4.69,7.33,9.34,0,6-2.89,9.72-7.55,9.72a6.89,6.89,0,0,1-6.69-5.27,7.33,7.33,0,0,1-.2-1.84V63a8.4,8.4,0,0,1,.18-1.4c0-.15.06-.31.08-.46A7.2,7.2,0,0,1,121.32,55.59Z"/><path class="cls-2" d="M152,50.89a10.64,10.64,0,0,0-9,4.33l-.23-3.73h-5.19l0,.48c.15,2.33.22,4.88.22,8.56V89.46h5.68V76a9.94,9.94,0,0,0,7.75,3.33,11.73,11.73,0,0,0,8.61-3.65c2.49-2.63,3.8-6.41,3.8-10.93a15.09,15.09,0,0,0-3.3-10A10.8,10.8,0,0,0,152,50.89Zm-1.42,4.7c5.06,0,7.33,4.69,7.33,9.34,0,6-2.89,9.72-7.54,9.72a6.93,6.93,0,0,1-6.89-7.11V63a8.27,8.27,0,0,1,.18-1.4c0-.16.05-.31.08-.46A7.18,7.18,0,0,1,150.56,55.59Z"/><path class="cls-2" d="M188.61,57.07c-5.3-2.06-7-3.67-7-6.65,0-2.51,2-5,6.46-5a12.81,12.81,0,0,1,6.66,1.67l.48.3,1.61-4.74-.32-.19a16.44,16.44,0,0,0-8.27-1.85c-7.24,0-12.3,4.27-12.3,10.39,0,4.94,3.17,8.38,10,10.86,4.82,1.8,6.61,3.64,6.61,6.81,0,3.58-2.77,5.8-7.22,5.8a15.56,15.56,0,0,1-8.18-2.32l-.49-.32-1.53,4.85.28.19c2.14,1.43,6.18,2.46,9.6,2.46,9.76,0,13.22-6,13.22-11C198.19,63,195.41,59.75,188.61,57.07Z"/><path class="cls-2" d="M208.41,45l-5.57,1.75v4.72h-4.08V56h4.08v13.9c0,3.36.64,5.72,2,7.21a7.28,7.28,0,0,0,5.49,2.15,13.53,13.53,0,0,0,4.39-.67l.32-.12L214.74,74l-.55.16a8.49,8.49,0,0,1-2.64.31c-2.2,0-3.14-1.39-3.14-4.66V56h6.85V51.49h-6.85Z"/><path class="cls-2" d="M229.33,50.89c-7.94,0-13.49,5.93-13.49,14.42,0,8.23,5.37,14,13.06,14h0c6.5,0,13.5-4.52,13.5-14.47a14.34,14.34,0,0,0-3.62-10A12.66,12.66,0,0,0,229.33,50.89Zm-.16,4.49c5.11,0,7.43,5,7.43,9.61,0,5.69-3.17,9.82-7.54,9.82H229c-4.31,0-7.44-4.06-7.44-9.66C221.57,60.29,223.92,55.38,229.17,55.38Z"/><path class="cls-2" d="M259.84,51.16l-.34-.09a5.68,5.68,0,0,0-1.41-.18A8.09,8.09,0,0,0,251,55.47l-.17-4h-5.1l0,.48c.15,2.25.21,4.77.21,8.18l0,18.55h5.68V64.22a15.11,15.11,0,0,1,.15-2.2c.64-3.47,3-5.72,6-5.72.58,0,1,.05,1.52.09l.61.07Z"/><path class="cls-2" d="M272.61,50.84c-7.56,0-12.84,6-12.84,14.69,0,8.33,5.25,13.71,13.38,13.71a21.88,21.88,0,0,0,9-1.72l.34-.16-1.09-4.23-.47.19a17.63,17.63,0,0,1-7.12,1.27c-2.46,0-8.15-.81-8.5-8.23l18.33,0,.07-.36a12.25,12.25,0,0,0,.17-2.37C283.87,57.76,280.92,50.84,272.61,50.84Zm-.38,4.32a5.59,5.59,0,0,1,4.17,1.59,8.05,8.05,0,0,1,2,5.29h-13C265.93,58.76,268,55.16,272.23,55.16Z"/><path class="cls-3" d="M81.64,13.66a23.72,23.72,0,0,1,3.72-.28,7.75,7.75,0,0,1,5.21,1.48,5.7,5.7,0,0,1,2,4.71,6.58,6.58,0,0,1-2,5.09,8.52,8.52,0,0,1-5.79,1.74,25,25,0,0,1-3.15-.17ZM84,24.51a9.82,9.82,0,0,0,1.29,0c3,0,4.84-1.67,4.84-4.92,0-2.81-1.61-4.44-4.54-4.44a8,8,0,0,0-1.59.13Z"/><path class="cls-3" d="M97,13.47v12.8H94.61V13.47Z"/><path class="cls-3" d="M99.59,23.73a6.48,6.48,0,0,0,3.09.81c1.49,0,2.32-.7,2.32-1.74s-.64-1.54-2.26-2.13c-2.13-.74-3.47-1.88-3.47-3.7,0-2.11,1.74-3.69,4.53-3.69a6.84,6.84,0,0,1,3.06.63l-.55,1.9a5.52,5.52,0,0,0-2.56-.61c-1.48,0-2.11.78-2.11,1.54,0,1,.74,1.44,2.45,2.09,2.22.85,3.29,2,3.29,3.8,0,2.07-1.56,3.83-4.85,3.83a7.59,7.59,0,0,1-3.47-.8Z"/><path class="cls-3" d="M109.48,13.64a21,21,0,0,1,3.58-.26,5.78,5.78,0,0,1,3.76,1,3.61,3.61,0,0,1,1.25,2.83A3.92,3.92,0,0,1,117,20.14a5.7,5.7,0,0,1-4,1.38,5.49,5.49,0,0,1-1.14-.09v4.84h-2.32Zm2.32,5.95a4.15,4.15,0,0,0,1.14.11c1.75,0,2.81-.87,2.81-2.35s-1-2.17-2.6-2.17a7.09,7.09,0,0,0-1.35.11Z"/><path class="cls-3" d="M125.34,26.48c-3.62,0-5.9-2.77-5.9-6.51,0-3.92,2.49-6.71,6.09-6.71s5.93,2.83,5.93,6.48c0,4.29-2.6,6.74-6.1,6.74Zm.12-1.88c2.26,0,3.53-2.09,3.53-4.77,0-2.41-1.2-4.69-3.53-4.69s-3.55,2.22-3.55,4.77,1.29,4.69,3.53,4.69Z"/><path class="cls-3" d="M133.46,26.27V13.47h2.67L139.44,19a39.43,39.43,0,0,1,2.18,4.29l0,0a51.9,51.9,0,0,1-.21-5.3V13.47h2.17v12.8h-2.43l-3.35-5.64a45,45,0,0,1-2.28-4.41l-.07,0c.09,1.66.13,3.35.13,5.45v4.58Z"/><path class="cls-3" d="M148.65,13.47v12.8h-2.33V13.47Z"/><path class="cls-3" d="M151.33,13.66a19.58,19.58,0,0,1,3.42-.28,6.1,6.1,0,0,1,3.64.81,2.71,2.71,0,0,1,1.33,2.41,3,3,0,0,1-2.12,2.76v.06a3.21,3.21,0,0,1,2.58,3.15A3.35,3.35,0,0,1,159,25.21c-.91.8-2.41,1.19-4.76,1.19a22.26,22.26,0,0,1-2.87-.17Zm2.32,5.05h1.19c1.64,0,2.53-.76,2.53-1.84s-.91-1.77-2.39-1.77a6,6,0,0,0-1.33.1Zm0,5.87a7,7,0,0,0,1.23.06c1.5,0,2.85-.55,2.85-2.15s-1.31-2.09-2.92-2.09h-1.16Z"/><path class="cls-3" d="M162.27,13.47h2.34V24.32h5.26v1.95h-7.6Z"/><path class="cls-3" d="M178.79,20.59H174v3.76h5.39v1.92h-7.73V13.47h7.45v1.92H174v3.3h4.82Z"/><path class="cls-3" d="M192.51,20.59h-4.83v3.76h5.4v1.92h-7.73V13.47h7.44v1.92h-5.11v3.3h4.83Z"/><path class="cls-3" d="M195.11,26.27V13.47h2.68l3.3,5.49a37.84,37.84,0,0,1,2.19,4.29l0,0a49.18,49.18,0,0,1-.21-5.3V13.47h2.16v12.8h-2.43l-3.34-5.64a42.88,42.88,0,0,1-2.28-4.41l-.08,0c.1,1.66.14,3.35.14,5.45v4.58Z"/></g></g></svg>