<svg xmlns="http://www.w3.org/2000/svg" viewBox="2839.347 -16862 314.606 464.418">
  <defs>
    <style>
      .cls-1 {
        fill: #4f930d;
      }

      .cls-2 {
        fill: #46890b;
      }

      .cls-3 {
        fill: #fff;
      }
    </style>
  </defs>
  <g id="soccer_field" transform="translate(2839.347 -16862)">
    <g id="Layer_1" data-name="Layer 1">
      <rect id="Rectangle_261" data-name="Rectangle 261" class="cls-1" width="314.606" height="464.418"/>
      <path id="Path_5554" data-name="Path 5554" class="cls-2" d="M314.606,0V464.418H0Z"/>
      <ellipse id="Ellipse_27" data-name="Ellipse 27" class="cls-3" cx="1.802" cy="1.801" rx="1.802" ry="1.801" transform="translate(154.971 54.651)"/>
      <ellipse id="Ellipse_28" data-name="Ellipse 28" class="cls-3" cx="1.802" cy="1.801" rx="1.802" ry="1.801" transform="translate(154.971 410.79)"/>
      <path id="Path_5555" data-name="Path 5555" class="cls-3" d="M177.021,457.1H307.289V0H0V457.1H130.241M2.488,454.618v-8.493a9.839,9.839,0,0,1,8.5,8.493ZM123.62,384.763a39.61,39.61,0,0,1,60.04,0Zm-3.137,1.49H238.552v68.355H193.565v-22.06H113.715v22.069H68.729V386.262Zm-5.277,68.355v-20.57h76.822v20.57Zm189.587,0h-8.5a9.839,9.839,0,0,1,8.5-8.493Zm-10.17,0H240.051V384.763H185.6a41.091,41.091,0,0,0-63.918,0H67.229v69.855H12.657a11.494,11.494,0,0,0-10.17-10.166v-214.9H112.563a41.091,41.091,0,0,0,82.154,0H304.793v214.9a11.494,11.494,0,0,0-10.161,10.166ZM152.108,229.549a1.83,1.83,0,0,0,3.055,0h38.054a39.586,39.586,0,0,1-79.173,0Zm3.055-1.993a1.83,1.83,0,0,0-3.055,0H114.063a39.586,39.586,0,0,1,79.173,0Zm39.545,0a41.091,41.091,0,0,0-82.154,0H2.488V12.653A11.494,11.494,0,0,0,12.657,2.487H67.229V72.341h54.452a41.091,41.091,0,0,0,63.918,0h54.452V2.487h54.58a11.494,11.494,0,0,0,10.161,10.166v214.9ZM183.66,72.341a39.61,39.61,0,0,1-60.04,0Zm3.137-1.49H68.729V2.487h44.987V24.556h79.849V2.487h44.987V70.851ZM115.206,2.487h76.822v20.57H115.206Zm-112.718,0h8.5a9.839,9.839,0,0,1-8.5,8.493Zm302.3,8.493a9.839,9.839,0,0,1-8.5-8.493h8.5Z" transform="translate(3.283 3.072)"/>
    </g>
  </g>
</svg>
